<?xml version="1.0" encoding="UTF-8"?>
<svg version="1.1" xmlns="http://www.w3.org/2000/svg" width="408" height="612">
<path d="M0 0 C1.90690906 4.46908697 2.58467516 8.66018685 3.03515625 13.46875 C3.11873886 14.31703369 3.20232147 15.16531738 3.28843689 16.03930664 C3.55905863 18.85853018 3.81328627 21.67880608 4.0625 24.5 C4.14927002 25.47187256 4.23604004 26.44374512 4.32543945 27.44506836 C5.80978547 44.44669856 6.58689099 61.44094028 7 78.5 C7.03408966 79.63284424 7.06817932 80.76568848 7.103302 81.93286133 C7.73119151 103.8601736 7.73119151 103.8601736 3.97265625 113.43164062 C2.06127082 118.47877284 1.84230358 123.52227743 1.8125 128.875 C1.79832031 130.02742187 1.78414063 131.17984375 1.76953125 132.3671875 C1.88190485 136.04970572 1.88190485 136.04970572 2.99731445 139.68725586 C4.12137677 144.04822307 4.27940671 148.15157983 4.2734375 152.63671875 C4.2937376 154.28320979 4.31458858 155.9296941 4.3359375 157.57617188 C4.35840325 160.12530227 4.37496919 162.6741642 4.38085938 165.22338867 C4.16131293 181.75972774 4.16131293 181.75972774 10.26977539 196.78833008 C13.10599941 199.46240042 16.09224726 200.32235163 19.75 201.25 C22.07421875 201.98046875 22.07421875 201.98046875 24 203 C26.78408011 209.34770265 26.15684079 216.4197795 26.01586914 223.26391602 C25.930031 227.70567593 26.14831918 231.96148219 26.69458008 236.36865234 C27.06866301 239.59156671 27.34177181 242.8176003 27.61328125 246.05078125 C27.72551709 247.38258103 27.83790807 248.71436774 27.95043945 250.04614258 C28.00898102 250.73898346 28.06752258 251.43182434 28.12783813 252.1456604 C30.44479143 279.33300712 33.5828498 306.39193166 37.1875 333.4375 C37.38613144 334.92885971 37.38613144 334.92885971 37.58877563 336.4503479 C37.96679308 339.27844685 38.34782458 342.1061174 38.73046875 344.93359375 C38.8438559 345.77777863 38.95724304 346.6219635 39.07406616 347.49172974 C39.50339269 350.63613446 39.94903964 353.7458927 40.57324219 356.85839844 C41.17119571 359.85911258 41.09335451 362.75790322 41.0625 365.8125 C41.05347656 366.97394531 41.04445313 368.13539063 41.03515625 369.33203125 C41.01775391 370.65267578 41.01775391 370.65267578 41 372 C32.4303966 377.06577541 18.94118401 376.19648291 9.2109375 376.921875 C6.88165636 377.0980851 4.55239262 377.27452541 2.22314453 377.45117188 C1.02707581 377.54164795 -0.16899292 377.63212402 -1.40130615 377.7253418 C-5.99952916 378.0762857 -10.59674275 378.43939886 -15.19395447 378.80331421 C-52.96857535 381.78810738 -90.7629101 384.33643414 -128.58278656 386.6762867 C-133.37169524 386.97273043 -138.16049192 387.27094612 -142.94921875 387.5703125 C-143.87613525 387.62820576 -144.80305176 387.68609901 -145.75805664 387.74574661 C-160.98198294 388.70113509 -176.19126768 389.80690124 -191.39640808 391.02468872 C-200.28254043 391.73437184 -209.16367574 392.36941126 -218.07307434 392.70870972 C-221.47191578 392.842316 -224.82750615 393.07341236 -228.203125 393.4765625 C-234.07978731 394.16265746 -239.96712433 394.46702932 -245.875 394.75 C-247.00164062 394.81832031 -248.12828125 394.88664062 -249.2890625 394.95703125 C-250.36671875 395.00730469 -251.444375 395.05757813 -252.5546875 395.109375 C-253.52905762 395.16061523 -254.50342773 395.21185547 -255.50732422 395.26464844 C-258 395 -258 395 -259.61453247 393.87992859 C-261.6114619 391.17031277 -261.50016205 389.00229717 -261.66015625 385.65649414 C-261.69485488 385.01379609 -261.72955351 384.37109804 -261.76530361 383.70892429 C-261.87764588 381.5681132 -261.96995089 379.42690698 -262.0625 377.28515625 C-262.13833076 375.77307558 -262.21551081 374.26106204 -262.29396057 372.74911499 C-262.45855442 369.53024757 -262.61473347 366.31112771 -262.76419067 363.09152222 C-262.99884152 358.04405955 -263.25274472 352.99769549 -263.51147461 347.95141602 C-263.55419086 347.11764529 -263.5969071 346.28387457 -263.64091778 345.42483807 C-263.72692591 343.74690923 -263.81300019 342.06898379 -263.89914131 340.39106178 C-264.02730198 337.88362981 -264.1537228 335.37611508 -264.2797699 332.86857605 C-264.94557771 319.68027398 -265.768448 306.50805118 -266.71317673 293.33678818 C-267.67048264 279.96554666 -268.54706899 266.59077317 -269.375 253.2109375 C-269.50438932 251.12945748 -269.63383114 249.04798073 -269.76332092 246.96650696 C-270.17696503 240.31109216 -270.58865902 233.65555749 -271 227 C-271.06860607 225.89050114 -271.13721214 224.78100227 -271.20789719 223.63788223 C-272.21338563 207.37539615 -273.21387076 191.11260465 -274.21251678 174.84969711 C-274.44096873 171.13103725 -274.66969393 167.41239428 -274.89849854 163.6937561 C-276.39177277 139.42220682 -277.88415131 115.15070065 -279.30859375 90.875 C-279.40392925 89.25425622 -279.49928104 87.6335134 -279.59465027 86.01277161 C-279.97778699 79.49484241 -280.35927202 72.97684128 -280.73152637 66.45828056 C-280.90971149 63.3509506 -281.09200024 60.24386027 -281.2734375 57.13671875 C-281.333535 56.05910278 -281.39363251 54.98148682 -281.45555115 53.87121582 C-281.51324173 52.89366333 -281.57093231 51.91611084 -281.63037109 50.90893555 C-281.67809662 50.07363815 -281.72582214 49.23834076 -281.7749939 48.37773132 C-282.01254867 45.86739305 -282.48908358 43.46757232 -283 41 C-283.23516206 37.29370338 -283.23073635 33.58806788 -283.25 29.875 C-283.270625 28.87339844 -283.29125 27.87179688 -283.3125 26.83984375 C-283.31765625 25.87949219 -283.3228125 24.91914063 -283.328125 23.9296875 C-283.3374707 23.05554199 -283.34681641 22.18139648 -283.35644531 21.28076172 C-282.90699871 18.40491915 -282.31074297 17.74499349 -280 16 C-277.27845764 15.45445251 -277.27845764 15.45445251 -273.83227539 15.20678711 C-273.17931173 15.15664774 -272.52634808 15.10650837 -271.85359764 15.05484962 C-269.58159106 14.8853112 -267.30868933 14.73742371 -265.03515625 14.58984375 C-263.3370383 14.47001235 -261.63896578 14.34953584 -259.94093323 14.22850037 C-231.01823588 12.2123359 -202.05984574 10.65521385 -173.11465704 9.00164545 C-164.69201472 8.52034884 -156.26962736 8.03466312 -147.84725642 7.5486443 C-137.05549204 6.92592583 -126.26367522 6.30417744 -115.4715271 5.68814087 C-114.65694719 5.64163395 -113.84236728 5.59512703 -113.00310314 5.54721081 C-112.18943409 5.50075606 -111.37576504 5.4543013 -110.53743935 5.40643883 C-108.89719258 5.31278964 -107.25694587 5.21913946 -105.61669922 5.12548828 C-104.80793359 5.07932224 -103.99916795 5.03315619 -103.16589427 4.98559117 C-92.42791666 4.37230539 -81.6905749 3.74899865 -70.95375347 3.11579609 C-65.29000324 2.78179315 -59.62607936 2.4507807 -53.96211225 2.12047786 C-50.1661062 1.89888427 -46.37021426 1.67563447 -42.57455254 1.44821358 C-12.96482899 -0.32446769 -12.96482899 -0.32446769 0 0 Z M-26.6171875 5.69921875 C-29.20320559 5.85540044 -31.78922452 6.01156833 -34.37524414 6.16772461 C-35.76588655 6.25271977 -37.15652159 6.33783566 -38.54714966 6.42306519 C-46.17282715 6.88987815 -53.79926156 7.34405982 -61.42578125 7.796875 C-62.24129141 7.84535017 -63.05680157 7.89382534 -63.89702415 7.94376945 C-83.01051468 9.07767724 -102.12967122 10.10240006 -121.24932861 11.12597656 C-153.27303763 12.84110118 -185.29255777 14.61607189 -217.30521774 16.5271492 C-219.96391925 16.68535304 -222.62270631 16.84203371 -225.28152466 16.9982605 C-242.55763986 18.01509838 -259.79705317 19.0656449 -277 21 C-277.12974641 34.20650279 -276.79343666 47.29718241 -275.96875 60.4765625 C-275.85586717 62.35280394 -275.74350412 64.22907671 -275.63160706 66.1053772 C-275.32592709 71.20487847 -275.0127206 76.30389221 -274.69807816 81.40284729 C-274.35881752 86.92162628 -274.02649779 92.44082433 -273.69311523 97.95996094 C-272.9596001 110.07964943 -272.21668466 122.19875087 -271.47186279 134.31774902 C-270.99425467 142.08967243 -270.51871091 149.86172139 -270.04345703 157.63378906 C-268.29826039 186.16518029 -266.54279411 214.69592327 -264.77722359 243.22606087 C-263.62495931 261.84632964 -262.48062952 280.46706555 -261.34359318 299.08827031 C-260.81701742 307.71004104 -260.28801335 316.33166286 -259.7587347 324.95326805 C-259.37387514 331.22455883 -258.99021609 337.49591801 -258.60940552 343.76745605 C-258.25742821 349.56373982 -257.90229391 355.3598213 -257.54467773 361.15575981 C-257.41478337 363.27044772 -257.28608339 365.38520939 -257.15866089 367.50004768 C-256.9853253 370.37434165 -256.80777395 373.24834499 -256.62915039 376.12231445 C-256.57983903 376.95705921 -256.53052767 377.79180397 -256.47972202 378.65184402 C-256.2351271 382.51712071 -255.8957821 386.21769354 -255 390 C-164.5529799 384.97610814 -74.09150047 379.52941586 16.12109375 371.234375 C17.32786774 371.12418533 18.53464172 371.01399567 19.77798462 370.90046692 C25.21058881 370.39452626 30.60923115 369.84580231 36 369 C35.62802685 365.81212487 35.25264905 362.62470587 34.875 359.4375 C34.74593262 358.34381104 34.61686523 357.25012207 34.48388672 356.12329102 C33.59480225 348.68826003 32.64108143 341.26461375 31.640625 333.84375 C25.90924066 291.07223217 21.86057395 248.11999949 20 205 C19.30640381 204.73735352 18.61280762 204.47470703 17.89819336 204.20410156 C16.99206299 203.8531543 16.08593262 203.50220703 15.15234375 203.140625 C14.25249756 202.79547852 13.35265137 202.45033203 12.42553711 202.09472656 C7.76712599 199.99222878 6.13958099 196.58711094 4.3125 192.0625 C2.06903883 185.95878163 1.84041739 179.80700566 1.75390625 173.3828125 C1.72096963 171.70702599 1.68775795 170.03124487 1.65429688 168.35546875 C1.60697225 165.74010868 1.56249655 163.12477074 1.52319336 160.50927734 C1.48319179 157.96690227 1.43172723 155.42494923 1.37890625 152.8828125 C1.3704921 152.1117215 1.36207794 151.34063049 1.35340881 150.5461731 C1.23792497 145.40541239 0.35056117 140.96120462 -1 136 C-1.93254568 126.28417522 -0.60416698 117.93727709 2.02734375 108.65625 C3.7136731 102.31727702 4.13083717 96.29700096 3.9140625 89.765625 C3.89282318 89.00578308 3.87158386 88.24594116 3.84970093 87.46307373 C3.80374233 85.86966469 3.75484283 84.27633798 3.703125 82.68310547 C3.62478585 80.24333068 3.55783286 77.80342715 3.4921875 75.36328125 C3.44598592 73.80987566 3.39913389 72.25648925 3.3515625 70.703125 C3.32178818 69.61091644 3.32178818 69.61091644 3.29141235 68.49664307 C3.18642412 65.42529237 2.97826909 62.93480727 2 60 C1.81843141 57.35140423 1.6759958 54.71391207 1.5625 52.0625 C1.26244525 46.10070527 0.63966889 40.39216985 -0.4609375 34.51953125 C-1.37276272 28.56623758 -1.81203111 22.56448562 -2.30249023 16.5637207 C-2.41765991 15.18639771 -2.41765991 15.18639771 -2.53515625 13.78125 C-2.600979 12.95689453 -2.66680176 12.13253906 -2.73461914 11.28320312 C-2.98704451 9.11146251 -3.45023974 7.11220666 -4 5 C-11.5677151 4.8933276 -19.06562645 5.22632126 -26.6171875 5.69921875 Z " fill="#2B2A28" transform="translate(313,111)"/>
<path d="M0 0 C0.99 10.395 0.99 10.395 2 21 C4.2981424 17.1490712 4.2981424 17.1490712 4 13 C5.60115576 12.7506643 7.20620159 12.52621352 8.8125 12.3125 C9.70582031 12.18488281 10.59914063 12.05726563 11.51953125 11.92578125 C14 12 14 12 17 15 C12.545 19.455 12.545 19.455 8 24 C9.97784053 27.95568107 11.62367192 29.65225121 14.85546875 32.4375 C16 34 16 34 15.67578125 36.1875 C15.45277344 36.785625 15.22976563 37.38375 15 38 C12.9375 38.875 12.9375 38.875 10 39 C7.40994275 37.26080867 5.20875121 35.19602066 3 33 C2.67 33.99 2.34 34.98 2 36 C3.32 36.66 4.64 37.32 6 38 C4.22835794 40.24007623 3.27819566 40.94453024 0.43359375 41.51171875 C-2.7109823 41.69621148 -5.85245244 41.8740981 -9 42 C-9.97066406 42.05285156 -10.94132812 42.10570312 -11.94140625 42.16015625 C-17.02564112 42.33037081 -17.02564112 42.33037081 -19 42 C-19.66 41.01 -20.32 40.02 -21 39 C-20.01 38.01 -20.01 38.01 -19 37 C-18.71793715 33.94067405 -18.71793715 33.94067405 -18.8125 30.5 C-18.81894531 29.3346875 -18.82539063 28.169375 -18.83203125 26.96875 C-18.79942061 24.07117998 -18.79942061 24.07117998 -20 22 C-21.32 22 -22.64 22 -24 22 C-25.46115902 24.92231804 -24.92541403 27.32757939 -24.6875 30.5625 C-24.60886719 31.73941406 -24.53023438 32.91632813 -24.44921875 34.12890625 C-24.30097656 35.07636719 -24.15273438 36.02382813 -24 37 C-23.34 37.33 -22.68 37.66 -22 38 C-22 39.32 -22 40.64 -22 42 C-27.01008042 43.2709009 -32.05075454 43.26728832 -37.1875 43.4375 C-46.1823072 43.78149198 -55.14989918 44.3123328 -64.125 45 C-65.23254639 45.08306396 -66.34009277 45.16612793 -67.48120117 45.25170898 C-68.52123291 45.33364502 -69.56126465 45.41558105 -70.6328125 45.5 C-72.00783936 45.60828125 -72.00783936 45.60828125 -73.41064453 45.71875 C-76.03084465 45.96007684 -76.03084465 45.96007684 -78.69091797 46.56640625 C-81 47 -81 47 -83.3125 46.4375 C-86.14468571 45.97644651 -87.26652355 46.28714617 -89.9375 47.125 C-93.15028425 48.01441485 -93.9007213 48.0324565 -97.25 46.9375 C-102.23841145 43.42293739 -104.37060125 39.83867884 -106 34 C-106.928125 34.2475 -106.928125 34.2475 -107.875 34.5 C-112.25470729 35.20075317 -116.57428989 35.07734251 -121 35 C-120.34 36.65 -119.68 38.3 -119 40 C-113.96488101 41.0070238 -110.76052962 40.97387813 -106 39 C-105.1875 40.6875 -105.1875 40.6875 -105 43 C-107.01180661 45.88358947 -108.70759281 47.60872076 -112.12890625 48.64453125 C-117.24436579 49.43219084 -120.63896284 49.04258407 -125 46 C-129.09104724 42.35122813 -129.77220731 38.76968303 -130.1015625 33.5 C-129.90687781 28.70776136 -128.07214041 25.56697445 -125.375 21.625 C-121.7736333 19.160907 -118.32298237 18.69979289 -114 19 C-109.85367951 20.84280911 -107.91303424 22.67725533 -106.125 26.75 C-105.75375 27.8225 -105.3825 28.895 -105 30 C-104.62875 28.7625 -104.2575 27.525 -103.875 26.25 C-102.23602453 21.88197576 -100.23308913 20.11654457 -96 18 C-92.6121754 16.95138762 -90.36367949 16.8787735 -87 18 C-87.32504259 13.17805357 -87.32504259 13.17805357 -89.5625 9.0625 C-90.036875 8.711875 -90.51125 8.36125 -91 8 C-90.67 7.01 -90.34 6.02 -90 5 C-88.00390625 4.19921875 -88.00390625 4.19921875 -85.5625 3.6875 C-84.75941406 3.50574219 -83.95632812 3.32398438 -83.12890625 3.13671875 C-82.07509766 3.06904297 -82.07509766 3.06904297 -81 3 C-78.11044112 5.88955888 -78.53920116 8.96480001 -78.3671875 12.8515625 C-78.32562531 13.62559418 -78.28406311 14.39962585 -78.24124146 15.19711304 C-78.11034551 17.67271021 -77.99252901 20.1487357 -77.875 22.625 C-77.78862015 24.30212783 -77.70139125 25.97921217 -77.61328125 27.65625 C-77.39899377 31.77039308 -77.19643517 35.88496746 -77 40 C-75.68 40 -74.36 40 -73 40 C-72.9046275 32.43378196 -72.90815165 24.87291361 -73.25 17.3125 C-73.29640625 16.19488281 -73.3428125 15.07726562 -73.390625 13.92578125 C-74.11323257 10.45633851 -75.30189565 9.21784177 -78 7 C-76 5 -76 5 -72.7421875 4.8046875 C-71.46601563 4.82789063 -70.18984375 4.85109375 -68.875 4.875 C-66.95300781 4.90207031 -66.95300781 4.90207031 -64.9921875 4.9296875 C-63.51105469 4.96449219 -63.51105469 4.96449219 -62 5 C-62 6.32 -62 7.64 -62 9 C-62.66 9.33 -63.32 9.66 -64 10 C-63.505 24.355 -63.505 24.355 -63 39 C-56.47105075 38.73943793 -56.47105075 38.73943793 -54.22265625 36.37109375 C-53.83980469 35.73300781 -53.45695312 35.09492188 -53.0625 34.4375 C-52.66160156 33.79683594 -52.26070313 33.15617187 -51.84765625 32.49609375 C-51.56792969 32.00238281 -51.28820312 31.50867188 -51 31 C-49.515 31.99 -49.515 31.99 -48 33 C-47.8125 36.125 -47.8125 36.125 -48 39 C-47.34 39 -46.68 39 -46 39 C-46.25437711 36.37243412 -46.52764201 33.74928226 -46.8125 31.125 C-46.88275391 30.37863281 -46.95300781 29.63226563 -47.02539062 28.86328125 C-47.24710223 26.89448223 -47.61579339 24.94363342 -48 23 C-48.99 22.34 -49.98 21.68 -51 21 C-51 20.01 -51 19.02 -51 18 C-47.7 17.01 -44.4 16.02 -41 15 C-38.55335827 17.44664173 -38.652125 18.41051785 -38.3671875 21.7890625 C-38.28339844 22.73007812 -38.19960937 23.67109375 -38.11328125 24.640625 C-38.03464844 25.62546875 -37.95601563 26.6103125 -37.875 27.625 C-37.78863281 28.61757813 -37.70226562 29.61015625 -37.61328125 30.6328125 C-37.4008156 33.08797111 -37.19674456 35.54353974 -37 38 C-35.515 38.495 -35.515 38.495 -34 39 C-34 33.06 -34 27.12 -34 21 C-35.485 20.505 -35.485 20.505 -37 20 C-36.67 18.68 -36.34 17.36 -36 16 C-28.375 13.875 -28.375 13.875 -25 15 C-24.34 14.67 -23.68 14.34 -23 14 C-18.96501795 13.96171744 -15.19449575 14.0294722 -12 16.625 C-9.29355025 23.05281815 -9.88859793 30.15496178 -10 37 C-9.01 36.67 -8.02 36.34 -7 36 C-7.33 26.1 -7.66 16.2 -8 6 C-9.32 5.67 -10.64 5.34 -12 5 C-11.875 3.125 -11.875 3.125 -11 1 C-6.5905959 -1.10448832 -4.96162825 -0.99232565 0 0 Z M-94.8125 24.4375 C-96.59792971 28.29026937 -96.54212836 31.8263543 -96 36 C-95.02662806 39.07499469 -95.02662806 39.07499469 -93 41 C-90.45709375 41.58350505 -90.45709375 41.58350505 -88 41 C-85.79936228 39.21005289 -85.79936228 39.21005289 -85.734375 36.828125 C-85.76471038 31.82278672 -86.02473156 27.69126254 -88 23 C-90.95061143 22.68101498 -92.44098326 22.5566419 -94.8125 24.4375 Z M-118 24 C-118.99 24.99 -119.98 25.98 -121 27 C-120.67 27.99 -120.34 28.98 -120 30 C-118.02 29.67 -116.04 29.34 -114 29 C-114.26676204 27.01508358 -114.26676204 27.01508358 -115 25 C-115.99 24.67 -116.98 24.34 -118 24 Z " fill="#161515" transform="translate(281,239)"/>
<path d="M0 0 C0 0.33 0 0.66 0 1 C-2.97 1 -5.94 1 -9 1 C-9 1.66 -9 2.32 -9 3 C-23.59940542 4.41173496 -38.19751006 5.54324827 -52.83789062 6.43261719 C-56.05363843 6.62826336 -59.26900862 6.82944064 -62.484375 7.03125 C-64.5520637 7.15917196 -66.61977135 7.28678801 -68.6875 7.4140625 C-69.6374585 7.47340973 -70.58741699 7.53275696 -71.56616211 7.59390259 C-72.4556958 7.64750946 -73.34522949 7.70111633 -74.26171875 7.75634766 C-75.03475342 7.80360992 -75.80778809 7.85087219 -76.60424805 7.89956665 C-79.40481169 8.01697029 -82.19731254 8.01578489 -85 8 C-81.45706418 70.1743398 -77.83983362 132.34324989 -74 194.5 C-73.91666514 195.84943889 -73.83333181 197.19887788 -73.75 198.54831696 C-72.07778033 225.62370949 -70.39309856 252.69832623 -68.70602417 279.77279663 C-68.03937405 290.47159837 -67.3737126 301.17046136 -66.70852661 311.86935425 C-66.24266166 319.35952486 -65.77485387 326.8495708 -65.30543518 334.3395195 C-65.01908858 338.91365765 -64.73422357 343.48788721 -64.44973755 348.06214142 C-64.31813814 350.17279387 -64.18589086 352.28340604 -64.052948 354.3939743 C-63.87214308 357.26547635 -63.69360749 360.1371109 -63.515625 363.00878906 C-63.46271805 363.83994484 -63.4098111 364.67110062 -63.3553009 365.52744293 C-63.09959675 369.69309131 -62.94479808 373.82378691 -63 378 C-63.66 377.67 -64.32 377.34 -65 377 C-65 376.34 -65 375.68 -65 375 C-66.32 375 -67.64 375 -69 375 C-69.43866309 367.75006991 -69.87583404 360.50005063 -70.3125 353.25 C-70.38002472 352.13035858 -70.44754944 351.01071716 -70.51712036 349.85714722 C-71.27395582 337.29781471 -72.02135443 324.73812884 -72.7265625 312.17578125 C-73.94182824 290.56563853 -75.2486197 268.96724208 -76.75 247.375 C-78.82992647 217.42685704 -80.66509222 187.46399745 -82.5 157.5 C-82.57617302 156.25725185 -82.65234604 155.01450371 -82.73082733 153.73409653 C-84.22837479 129.30184661 -85.72188647 104.86937178 -87.15695953 80.43336105 C-87.30154964 77.97139765 -87.44648157 75.50945457 -87.5914917 73.04751587 C-87.97581432 66.51696842 -88.3588229 59.98637079 -88.73180962 53.45516491 C-88.90991256 50.34887424 -89.09210393 47.24282225 -89.2734375 44.13671875 C-89.33352997 43.05915817 -89.39362244 41.9815976 -89.45553589 40.87138367 C-89.51323151 39.89377579 -89.57092712 38.91616791 -89.63037109 37.90893555 C-89.67809662 37.07363815 -89.72582214 36.23834076 -89.7749939 35.37773132 C-90.01254867 32.86739305 -90.48908358 30.46757232 -91 28 C-91.23516206 24.29370338 -91.23073635 20.58806788 -91.25 16.875 C-91.270625 15.87339844 -91.29125 14.87179688 -91.3125 13.83984375 C-91.31765625 12.87949219 -91.3228125 11.91914063 -91.328125 10.9296875 C-91.3374707 10.05554199 -91.34681641 9.18139648 -91.35644531 8.28076172 C-91 6 -91 6 -89.95629883 4.24682617 C-86.96016364 2.3372714 -83.8286847 2.32861888 -80.37109375 2.12109375 C-79.21633041 2.03557755 -79.21633041 2.03557755 -78.03823853 1.94833374 C-75.50541538 1.76446336 -72.97173459 1.60066317 -70.4375 1.4375 C-68.68344415 1.31501938 -66.92945669 1.19155554 -65.17553711 1.06713867 C-59.78499889 0.69030768 -54.3927911 0.34283683 -49 0 C-47.31933347 -0.10836014 -45.63866934 -0.21675756 -43.95800781 -0.32519531 C-39.32672522 -0.62194641 -34.69490002 -0.9087522 -30.0625 -1.1875 C-29.35229706 -1.23029083 -28.64209412 -1.27308167 -27.91036987 -1.31716919 C-7.57733737 -2.52577912 -7.57733737 -2.52577912 0 0 Z " fill="#373736" transform="translate(121,124)"/>
<path d="M0 0 C1.03640625 0.00676758 1.03640625 0.00676758 2.09375 0.01367188 C3.72920822 0.02502922 5.36461946 0.04292763 7 0.0625 C9.07730039 4.43941693 9.58879125 8.76662316 10.03515625 13.53125 C10.16053017 14.80367554 10.16053017 14.80367554 10.28843689 16.10180664 C10.55905863 18.92103018 10.81328627 21.74130608 11.0625 24.5625 C11.14927002 25.53437256 11.23604004 26.50624512 11.32543945 27.50756836 C12.80978547 44.50919856 13.58689099 61.50344028 14 78.5625 C14.05113449 80.26176636 14.05113449 80.26176636 14.103302 81.99536133 C14.73119151 103.9226736 14.73119151 103.9226736 10.97265625 113.49414062 C9.06127082 118.54127284 8.84230358 123.58477743 8.8125 128.9375 C8.79832031 130.08992187 8.78414062 131.24234375 8.76953125 132.4296875 C8.88190485 136.11220572 8.88190485 136.11220572 9.99731445 139.74975586 C11.12137677 144.11072307 11.27940671 148.21407983 11.2734375 152.69921875 C11.2937376 154.34570979 11.31458858 155.9921941 11.3359375 157.63867188 C11.35840325 160.18780227 11.37496919 162.7366642 11.38085938 165.28588867 C11.16131293 181.82222774 11.16131293 181.82222774 17.26977539 196.85083008 C20.10599941 199.52490042 23.09224726 200.38485163 26.75 201.3125 C29.07421875 202.00390625 29.07421875 202.00390625 31 203.0625 C33.70756173 208.11454046 33.20286406 214.48373838 33 220.0625 C32.34 220.0625 31.68 220.0625 31 220.0625 C30.97421875 219.45921875 30.9484375 218.8559375 30.921875 218.234375 C30.62611413 212.99268499 30.62611413 212.99268499 27.9375 208.625 C27.298125 208.109375 26.65875 207.59375 26 207.0625 C26 206.4025 26 205.7425 26 205.0625 C25.40832031 204.91554688 24.81664062 204.76859375 24.20703125 204.6171875 C18.42432102 202.97576567 15.3582041 201.29734757 12 196.0625 C8.52094834 188.73895007 7.86171017 181.45067697 7.75390625 173.4453125 C7.72096963 171.76952599 7.68775795 170.09374487 7.65429688 168.41796875 C7.60697225 165.80260868 7.56249655 163.18727074 7.52319336 160.57177734 C7.48319179 158.02940227 7.43172723 155.48744923 7.37890625 152.9453125 C7.3704921 152.1742215 7.36207794 151.40313049 7.35340881 150.6086731 C7.23792497 145.46791239 6.35056117 141.02370462 5 136.0625 C4.06745432 126.34667522 5.39583302 117.99977709 8.02734375 108.71875 C9.7136731 102.37977702 10.13083717 96.35950096 9.9140625 89.828125 C9.89282318 89.06828308 9.87158386 88.30844116 9.84970093 87.52557373 C9.80374233 85.93216469 9.75484283 84.33883798 9.703125 82.74560547 C9.62478585 80.30583068 9.55783286 77.86592715 9.4921875 75.42578125 C9.44598592 73.87237566 9.39913389 72.31898925 9.3515625 70.765625 C9.33171295 70.03748596 9.3118634 69.30934692 9.29141235 68.55914307 C9.18642412 65.48779237 8.97826909 62.99730727 8 60.0625 C7.77034698 56.71248215 7.60967086 53.36869998 7.48242188 50.01367188 C7.27723271 45.72018537 6.78700856 41.58954746 6.03515625 37.35546875 C4.86947823 30.69815203 4.34032711 24.04974069 3.875 17.3125 C3.72414262 15.19200715 3.57283372 13.07154639 3.4211731 10.95111084 C3.34231936 9.8482864 3.26346561 8.74546196 3.18222237 7.6092186 C3.12208899 6.76880146 3.0619556 5.92838432 3 5.0625 C2.30039154 5.11441246 1.60078308 5.16632492 0.87997437 5.21981049 C-17.19703667 6.55398221 -35.27733934 7.70361634 -53.375 8.71875 C-56.00643904 8.86786866 -58.63786856 9.01714706 -61.26928711 9.16662598 C-67.43379356 9.51645315 -73.5984159 9.86419128 -79.76308537 10.21113253 C-86.65420875 10.59907336 -93.54518623 10.98957612 -100.43615723 11.38021278 C-112.8451797 12.08361317 -125.2544214 12.78304621 -137.66381836 13.47981262 C-144.06026589 13.8393806 -150.45649504 14.20236932 -156.85240173 14.57143402 C-160.22955405 14.76614856 -163.60681622 14.95890815 -166.98410034 15.15132141 C-168.46066042 15.23598861 -169.9371654 15.32162389 -171.41360474 15.40837097 C-178.95142799 15.85108762 -186.44818644 16.18678014 -194 16.0625 C-194 15.4025 -194 14.7425 -194 14.0625 C-190.535 13.5675 -190.535 13.5675 -187 13.0625 C-188.65 12.7325 -190.3 12.4025 -192 12.0625 C-192 11.7325 -192 11.4025 -192 11.0625 C-172.85162786 9.56470708 -153.69516503 8.35382793 -134.5191958 7.27721095 C-130.71770934 7.06323788 -126.91638215 6.84646926 -123.11503601 6.63002014 C-115.94565668 6.22218263 -108.77615224 5.81659291 -101.60659236 5.41194302 C-91.1008129 4.81890005 -80.59522234 4.22252688 -70.08964062 3.62599277 C-68.52380564 3.53708424 -66.95797064 3.44817605 -65.39213562 3.35926819 C-64.62646796 3.31578847 -63.8608003 3.27230875 -63.07193059 3.22751147 C-58.58584909 2.97284016 -54.09972829 2.71887624 -49.61357063 2.46555018 C-46.15552956 2.27024171 -42.69751176 2.07452334 -39.23950195 1.87866211 C-37.95650868 1.80601072 -36.67351542 1.73335934 -35.35164356 1.65850639 C-27.53096916 1.21327851 -19.71244785 0.74494183 -11.89616394 0.228302 C-7.92148272 0.00075615 -3.9809909 -0.03554456 0 0 Z " fill="#282828" transform="translate(306,110.9375)"/>
<path d="M0 0 C3.47485838 2.07012839 5.74352278 4.11634312 7 8 C7.1875 11.1875 7.1875 11.1875 7 14 C5.00383446 15.99616554 1.18298037 15.40983427 -1.5625 15.5625 C-2.27341797 15.60568359 -2.98433594 15.64886719 -3.71679688 15.69335938 C-5.47761912 15.79971777 -7.2387832 15.90038846 -9 16 C-7.77832383 18.55240037 -7.77832383 18.55240037 -6 21 C-1.76157566 21.40365946 1.93098831 21.35633723 6 20 C6.495 21.98 6.495 21.98 7 24 C3.51650558 27.66683623 1.19744158 29.3974346 -3.9375 29.6875 C-8.69854645 29.44334377 -11.33562519 27.99253952 -14.66015625 24.63671875 C-18.45238355 20.00423118 -18.19437821 15.73415713 -18 10 C-18.763125 10.185625 -19.52625 10.37125 -20.3125 10.5625 C-23 11 -23 11 -26 10 C-26 14.95 -26 19.9 -26 25 C-25.01 25.33 -24.02 25.66 -23 26 C-23 26.99 -23 27.98 -23 29 C-25.76452033 30.38226016 -28.0461363 30.09525387 -31.125 30.0625 C-32.22070312 30.05347656 -33.31640625 30.04445313 -34.4453125 30.03515625 C-35.28835937 30.02355469 -36.13140625 30.01195312 -37 30 C-37 28.68 -37 27.36 -37 26 C-36.34 26 -35.68 26 -35 26 C-35.08722937 23.58164103 -35.19411373 21.16686684 -35.3125 18.75 C-35.33505859 18.06808594 -35.35761719 17.38617188 -35.38085938 16.68359375 C-35.6084555 12.42133909 -36.32921883 10.26179437 -39 7 C-38 4 -38 4 -35.75 2.8125 C-32.97278006 1.99195775 -30.87482612 1.84869336 -28 2 C-25.11819901 2.19880372 -25.11819901 2.19880372 -23.125 1.1875 C-22.073125 1.0946875 -22.073125 1.0946875 -21 1 C-18.25 3.4375 -18.25 3.4375 -16 6 C-15.59910156 5.566875 -15.19820312 5.13375 -14.78515625 4.6875 C-10.16101566 0.15772963 -6.4550325 -1.42906911 0 0 Z M-7 5 C-7.99 6.485 -7.99 6.485 -9 8 C-8.67 8.99 -8.34 9.98 -8 11 C-4.535 10.505 -4.535 10.505 -1 10 C-1.66 8.35 -2.32 6.7 -3 5 C-4.32 5 -5.64 5 -7 5 Z " fill="#161515" transform="translate(143,260)"/>
<path d="M0 0 C2.13586678 3.20380017 2.23132175 4.01939967 2.125 7.6875 C2.10695312 8.49574219 2.08890625 9.30398438 2.0703125 10.13671875 C2.04710937 10.75160156 2.02390625 11.36648438 2 12 C0.68 12.33 -0.64 12.66 -2 13 C-2.27972656 12.43410156 -2.55945313 11.86820312 -2.84765625 11.28515625 C-5.51212731 6.34813121 -5.51212731 6.34813121 -10.375 3.8125 C-14.64148671 4.03318035 -17.31625597 4.83309175 -21 7 C-23.83855789 12.40453903 -23.50832599 18.05339281 -23 24 C-21.70214822 28.03776109 -20.44099956 29.60002366 -17.3125 32.4375 C-13.66346075 34.15874493 -11.78076854 34.40436816 -7.89453125 33.68359375 C-3.6254314 32.1431969 -1.41952571 28.62928856 1 25 C1.99 25.33 2.98 25.66 4 26 C4.48238394 30.05202513 4.18904731 31.70783598 1.9375 35.1875 C-1.98931387 39.39007327 -6.26321596 40.834592 -11.9375 41.375 C-19.20778637 41.05156366 -24.96744413 38.14959205 -30 33 C-34.09006043 26.59223867 -33.6758026 19.39917208 -33 12 C-32.26071577 9.32328125 -31.38491647 7.42360383 -30 5 C-29.34 5 -28.68 5 -28 5 C-27.67 4.01 -27.34 3.02 -27 2 C-19.38030114 -3.2292051 -8.36915289 -4.42985357 0 0 Z " fill="#191918" transform="translate(102,252)"/>
<path d="M0 0 C0.99 0 1.98 0 3 0 C3 1.32 3 2.64 3 4 C4.32 4.66 5.64 5.32 7 6 C6.67 6.99 6.34 7.98 6 9 C5.34 9 4.68 9 4 9 C4 10.65 4 12.3 4 14 C4.99 14.33 5.98 14.66 7 15 C6.67 16.32 6.34 17.64 6 19 C3.625 19.125 3.625 19.125 1 19 C-1 17 -1 17 -1.1953125 15.0546875 C-1.13020833 13.03645833 -1.06510417 11.01822917 -1 9 C-1.66 9.66 -2.32 10.32 -3 11 C-2.505 11.495 -2.505 11.495 -2 12 C-1.625 14.375 -1.625 14.375 -2 17 C-4.125 18.875 -4.125 18.875 -7 20 C-9.00546689 19.70131344 -11.00577205 19.36628677 -13 19 C-13.99 19.33 -14.98 19.66 -16 20 C-19.63601385 21.21200462 -21.42174473 21.43130211 -25 20 C-26.4361999 17.44496272 -27.26536744 14.82897975 -28 12 C-28.99 12.495 -28.99 12.495 -30 13 C-30 15.31 -30 17.62 -30 20 C-33.97977076 20.8441938 -37.97007218 21.44687265 -42 22 C-44.4294516 18.3558226 -44.16179575 16.28758728 -44 12 C-44.99 11.67 -45.98 11.34 -47 11 C-45.87548273 8.0280615 -44.77706209 5.66559313 -43 3 C-42.01 3 -41.02 3 -40 3 C-39.67 4.32 -39.34 5.64 -39 7 C-31.08 6.505 -31.08 6.505 -23 6 C-21.0044484 9.99110319 -20.80453935 11.69986566 -21 16 C-20.34 16 -19.68 16 -19 16 C-19 13.03 -19 10.06 -19 7 C-17.35 6.67 -15.7 6.34 -14 6 C-13.505 6.99 -13.505 6.99 -13 8 C-12.4740625 7.2575 -12.4740625 7.2575 -11.9375 6.5 C-10 5 -10 5 -6.5 5.125 C-5.345 5.08375 -4.19 5.0425 -3 5 C-1.21030974 2.57327433 -1.21030974 2.57327433 0 0 Z M-39 11 C-39 13.31 -39 15.62 -39 18 C-38.01 18 -37.02 18 -36 18 C-36 15.36 -36 12.72 -36 10 C-37.2236068 9.9254644 -37.2236068 9.9254644 -39 11 Z M-13 13 C-12 15 -12 15 -12 15 Z " fill="#252122" transform="translate(281,292)"/>
<path d="M0 0 C1.93676758 0.68334961 1.93676758 0.68334961 4 2 C4.71362305 4.25219727 4.71362305 4.25219727 5.01171875 7.06640625 C5.12966797 8.11119141 5.24761719 9.15597656 5.36914062 10.23242188 C5.47419922 11.33134766 5.57925781 12.43027344 5.6875 13.5625 C5.80416016 14.60341797 5.92082031 15.64433594 6.04101562 16.71679688 C6.69879839 22.85238641 7.134669 28.98778136 7.46875 35.1484375 C7.97810932 44.48189594 8.86557006 53.76455733 9.8125 63.0625 C9.89826294 63.91719879 9.98402588 64.77189758 10.0723877 65.65249634 C11.43400838 79.20005668 12.99670959 92.71470476 14.78051758 106.21313477 C14.94060303 107.43572998 15.10068848 108.6583252 15.265625 109.91796875 C15.40774414 110.97781982 15.54986328 112.0376709 15.69628906 113.12963867 C15.97682107 115.78093671 16.05766267 118.33678211 16 121 C15.34 121 14.68 121 14 121 C13.67 120.01 13.34 119.02 13 118 C11.515 118.99 11.515 118.99 10 120 C7.19384349 97.82443475 4.65962322 75.64738629 2.75 53.375 C2.66745972 52.41752869 2.58491943 51.46005737 2.49987793 50.47357178 C-0.17213996 19.27967535 -0.17213996 19.27967535 -0.0625 7 C-0.05798828 6.3090625 -0.05347656 5.618125 -0.04882812 4.90625 C-0.03747078 3.27079178 -0.01957237 1.63538054 0 0 Z " fill="#353032" transform="translate(333,320)"/>
<path d="M0 0 C0.66 0 1.32 0 2 0 C3.6484428 11.97248369 4.48977451 23.85952281 4.79785156 35.93994141 C4.87532536 38.76185085 4.98437384 41.58151314 5.09375 44.40234375 C5.38120094 53.65392282 5.31423623 61.57422523 1.97705078 70.31738281 C0.11430909 75.43177705 -0.1574045 80.46984863 -0.1875 85.875 C-0.20167969 87.02742188 -0.21585937 88.17984375 -0.23046875 89.3671875 C-0.11809515 93.04970572 -0.11809515 93.04970572 0.99731445 96.68725586 C2.12137677 101.04822307 2.27940671 105.15157983 2.2734375 109.63671875 C2.2937376 111.28320979 2.31458858 112.9296941 2.3359375 114.57617188 C2.35840325 117.12530227 2.37496919 119.6741642 2.38085938 122.22338867 C2.16131293 138.75972774 2.16131293 138.75972774 8.26977539 153.78833008 C11.10599941 156.46240042 14.09224726 157.32235163 17.75 158.25 C20.07421875 158.94140625 20.07421875 158.94140625 22 160 C24.70756173 165.05204046 24.20286406 171.42123838 24 177 C23.34 177 22.68 177 22 177 C21.97421875 176.39671875 21.9484375 175.7934375 21.921875 175.171875 C21.62611413 169.93018499 21.62611413 169.93018499 18.9375 165.5625 C18.298125 165.046875 17.65875 164.53125 17 164 C17 163.34 17 162.68 17 162 C16.40832031 161.85304688 15.81664062 161.70609375 15.20703125 161.5546875 C9.42432102 159.91326567 6.3582041 158.23484757 3 153 C-0.47905166 145.67645007 -1.13828983 138.38817697 -1.24609375 130.3828125 C-1.27903037 128.70702599 -1.31224205 127.03124487 -1.34570312 125.35546875 C-1.39302775 122.74010868 -1.43750345 120.12477074 -1.47680664 117.50927734 C-1.51680821 114.96690227 -1.56827277 112.42494923 -1.62109375 109.8828125 C-1.6295079 109.1117215 -1.63792206 108.34063049 -1.64659119 107.5461731 C-1.76207503 102.40541239 -2.64943883 97.96120462 -4 93 C-4.93254568 83.28417522 -3.60416698 74.93727709 -0.97265625 65.65625 C0.71051932 59.3291322 1.13138161 53.32003412 0.9140625 46.80078125 C0.89282318 46.043311 0.87158386 45.28584076 0.84970093 44.50541687 C0.80373776 42.9162039 0.75483776 41.32707338 0.703125 39.73803711 C0.62489524 37.30924753 0.55787354 34.8803297 0.4921875 32.45117188 C0.4459759 30.90102175 0.39912322 29.35089057 0.3515625 27.80078125 C0.33171295 27.0778035 0.3118634 26.35482574 0.29141235 25.60993958 C0.17688065 22.25977519 -0.13415418 19.23108318 -1 16 C-0.91382359 13.23123519 -0.77449327 10.50834926 -0.5625 7.75 C-0.51029297 7.00492188 -0.45808594 6.25984375 -0.40429688 5.4921875 C-0.2751783 3.66105139 -0.13834886 1.83046187 0 0 Z " fill="#090908" transform="translate(315,154)"/>
<path d="M0 0 C4.29 0 8.58 0 13 0 C14.50764384 3.76910959 15.26144875 5.75245893 15.59423828 9.53979492 C15.67417023 10.40807419 15.75410217 11.27635345 15.8364563 12.17094421 C15.91362885 13.09808731 15.99080139 14.02523041 16.0703125 14.98046875 C16.15626678 15.9484993 16.24222107 16.91652985 16.33078003 17.91389465 C16.51081952 19.96026117 16.68709544 22.00696182 16.85986328 24.05395508 C17.12266397 27.15989138 17.39822394 30.26449202 17.67578125 33.36914062 C17.84972095 35.364517 18.02292152 37.35995797 18.1953125 39.35546875 C18.27653351 40.27249069 18.35775452 41.18951263 18.44143677 42.13432312 C18.93857743 48.10344502 19.09343411 54.01119579 19 60 C18.67 60 18.34 60 18 60 C17.09586327 56.16275828 16.89423102 52.62497726 16.9375 48.6875 C16.94652344 47.61886719 16.95554687 46.55023438 16.96484375 45.44921875 C16.97644531 44.64097656 16.98804688 43.83273438 17 43 C16.34 43 15.68 43 15 43 C15 48.28 15 53.56 15 59 C14.67 59 14.34 59 14 59 C13.95101563 57.98421875 13.90203125 56.9684375 13.8515625 55.921875 C13.77639255 54.53123099 13.70085129 53.14060701 13.625 51.75 C13.5940625 51.08742187 13.563125 50.42484375 13.53125 49.7421875 C13.29298129 45.53277365 12.76826466 41.46483096 12.03125 37.3125 C10.87135954 30.64867074 10.34030773 23.99314808 9.875 17.25 C9.78863281 16.0640625 9.70226562 14.878125 9.61328125 13.65625 C9.40387896 10.77115185 9.19952917 7.88579483 9 5 C7.68 4.67 6.36 4.34 5 4 C5 3.67 5 3.34 5 3 C3.35 2.67 1.7 2.34 0 2 C0 1.34 0 0.68 0 0 Z " fill="#444042" transform="translate(300,111)"/>
<path d="M0 0 C2.53927113 2.9574326 3.39680491 4.88440232 3.6159668 8.76513672 C3.67580246 9.70646454 3.73563812 10.64779236 3.79728699 11.61764526 C3.84742447 12.6281192 3.89756195 13.63859314 3.94921875 14.6796875 C4.01156204 15.72520782 4.07390533 16.77072815 4.13813782 17.84793091 C4.33410078 21.18969225 4.5108151 24.5321697 4.6875 27.875 C4.81714159 30.11856028 4.94798723 32.36205134 5.08007812 34.60546875 C6.08800534 52.07930062 6.08800534 52.07930062 6 58 C5.34 57.67 4.68 57.34 4 57 C4 56.34 4 55.68 4 55 C2.68 55 1.36 55 0 55 C-0.47955308 47.95345411 -0.94165635 40.90591987 -1.39160156 33.85742188 C-1.54675425 31.45937148 -1.70591117 29.06157667 -1.86914062 26.6640625 C-2.10297093 23.21934287 -2.32242081 19.77396299 -2.5390625 16.328125 C-2.61500641 15.25508118 -2.69095032 14.18203735 -2.76919556 13.07647705 C-2.82940887 12.07574158 -2.88962219 11.0750061 -2.95166016 10.04394531 C-3.00939606 9.16458313 -3.06713196 8.28522095 -3.12661743 7.37921143 C-2.96731252 4.38578414 -2.14160561 2.14160561 0 0 Z " fill="#3A3835" transform="translate(52,444)"/>
<path d="M0 0 C0.99 0.66 1.98 1.32 3 2 C3.36328125 4.09375 3.36328125 4.09375 3.3125 6.5 C3.30863281 7.2940625 3.30476563 8.088125 3.30078125 8.90625 C3 11 3 11 1 13 C-1.53442383 13.39477539 -1.53442383 13.39477539 -4.70703125 13.59765625 C-5.85107422 13.67693359 -6.99511719 13.75621094 -8.17382812 13.83789062 C-9.37458984 13.91201172 -10.57535156 13.98613281 -11.8125 14.0625 C-14.1733571 14.21733128 -16.53404392 14.37478625 -18.89453125 14.53515625 C-19.94487549 14.600979 -20.99521973 14.66680176 -22.07739258 14.73461914 C-24.98273846 14.94343979 -24.98273846 14.94343979 -27.7253418 15.56030273 C-30.42706784 16.08255331 -32.32020648 15.5359587 -35 15 C-35.825 15.165 -36.65 15.33 -37.5 15.5 C-40.31556665 16.06311333 -42.24286986 15.70897632 -45 15 C-45 14.34 -45 13.68 -45 13 C-42.98249041 12.4956226 -40.97210848 11.99408362 -38.9375 11.5625 C-36.70268087 11.01897401 -36.70268087 11.01897401 -34 9 C-32.68 10.32 -31.36 11.64 -30 13 C-29.34 11.68 -28.68 10.36 -28 9 C-25.525 9.495 -25.525 9.495 -23 10 C-22.01 7.69 -21.02 5.38 -20 3 C-19.01 3 -18.02 3 -17 3 C-16.67 3.99 -16.34 4.98 -16 6 C-15.01 6 -14.02 6 -13 6 C-12.505 7.485 -12.505 7.485 -12 9 C-5.81223853 7.25951757 -5.81223853 7.25951757 -1.5 2.8125 C-1.005 1.884375 -0.51 0.95625 0 0 Z " fill="#1C1C1B" transform="translate(230,270)"/>
<path d="M0 0 C0.4294918 6.60182521 0.85648073 13.2038089 1.28173828 19.8059082 C1.42667071 22.05138812 1.57217394 24.29683128 1.71826172 26.54223633 C1.92826366 29.77155185 2.13620585 33.00099445 2.34375 36.23046875 C2.40937134 37.23272995 2.47499268 38.23499115 2.54260254 39.2676239 C2.60266479 40.20822159 2.66272705 41.14881927 2.72460938 42.11791992 C2.77790405 42.94176682 2.83119873 43.76561371 2.8861084 44.61442566 C3.00381824 47.07997685 3.01935355 49.53202733 3 52 C-1.875 51.125 -1.875 51.125 -3 50 C-3.23080975 47.81479876 -3.396226 45.62264806 -3.53515625 43.4296875 C-3.57813339 42.75640411 -3.62111053 42.08312073 -3.66539001 41.38943481 C-3.75587075 39.9519862 -3.84397539 38.51438642 -3.92993164 37.07666016 C-4.05906052 34.93212192 -4.19783645 32.78837999 -4.33789062 30.64453125 C-4.78067233 23.64693925 -5.11951566 16.64366256 -5.24609375 9.6328125 C-5.27243896 8.4277002 -5.29878418 7.22258789 -5.32592773 5.98095703 C-5 3 -5 3 -3.60961914 1.08544922 C-2 0 -2 0 0 0 Z " fill="#3A3A3A" transform="translate(38,174)"/>
<path d="M0 0 C0.495 0.99 0.495 0.99 1 2 C1.99 1.67 2.98 1.34 4 1 C6.232269 1.08617726 8.46238486 1.23922241 10.6875 1.4375 C11.86699219 1.53933594 13.04648437 1.64117187 14.26171875 1.74609375 C15.16535156 1.82988281 16.06898438 1.91367187 17 2 C17 2.66 17 3.32 17 4 C10.19072323 4.55398947 3.38120862 5.10498539 -3.4284668 5.65405273 C-5.73743979 5.84056339 -8.04636069 6.02772018 -10.35522461 6.21557617 C-23.56357338 7.289775 -36.76548844 8.30939346 -50 9 C-49.67 7.68 -49.34 6.36 -49 5 C-48.19175781 5.01160156 -47.38351563 5.02320313 -46.55078125 5.03515625 C-45.48214844 5.04417969 -44.41351563 5.05320312 -43.3125 5.0625 C-41.72888672 5.07990234 -41.72888672 5.07990234 -40.11328125 5.09765625 C-37.27053846 5.00848615 -34.76670477 4.61536166 -32 4 C-30.35363932 4 -28.7073721 4.05500544 -27.0625 4.125 C-21.94922255 4.14666643 -16.99167549 3.01097225 -12 2 C-12 1.67 -12 1.34 -12 1 C-6.06 0.505 -6.06 0.505 0 0 Z " fill="#1F1E1D" transform="translate(275,486)"/>
<path d="M0 0 C0 0.33 0 0.66 0 1 C-1.08539063 1.13277344 -2.17078125 1.26554687 -3.2890625 1.40234375 C-4.73438322 1.58066254 -6.17969526 1.75905169 -7.625 1.9375 C-8.33785156 2.02451172 -9.05070312 2.11152344 -9.78515625 2.20117188 C-13.87591961 2.70782605 -17.93842635 3.2889043 -22 4 C-22 3.34 -22 2.68 -22 2 C-23.32 2 -24.64 2 -26 2 C-26.33 2.66 -26.66 3.32 -27 4 C-35.57142857 4.14285714 -35.57142857 4.14285714 -39 3 C-39.33 4.32 -39.66 5.64 -40 7 C-47.0588224 7.66660043 -54.09827211 8.11847989 -61.1875 8.1875 C-62.43917969 8.20167969 -63.69085938 8.21585937 -64.98046875 8.23046875 C-68 8 -68 8 -70 6 C-70.99 6 -71.98 6 -73 6 C-73 5.34 -73 4.68 -73 4 C-65.69724211 3.47216519 -58.39408614 2.95023157 -51.09039974 2.43539429 C-47.69734841 2.19604091 -44.30445381 1.95481664 -40.91186523 1.70898438 C-36.99236328 1.42597742 -33.07242293 1.14988213 -29.15234375 0.875 C-27.96108383 0.78750488 -26.76982391 0.70000977 -25.54246521 0.60986328 C-17.00821735 0.02071965 -8.55004162 -0.09448337 0 0 Z " fill="#222220" transform="translate(265,488)"/>
<path d="M0 0 C0 3.63 0 7.26 0 11 C-0.99 11.33 -1.98 11.66 -3 12 C-3 11.34 -3 10.68 -3 10 C-4.32 10.33 -5.64 10.66 -7 11 C-6.01 11.33 -5.02 11.66 -4 12 C-4.66 13.65 -5.32 15.3 -6 17 C-6.66 17 -7.32 17 -8 17 C-8.33 17.66 -8.66 18.32 -9 19 C-9.99 18.67 -10.98 18.34 -12 18 C-12 17.34 -12 16.68 -12 16 C-13.65 15.67 -15.3 15.34 -17 15 C-17 14.34 -17 13.68 -17 13 C-13.62182575 12.15545644 -11.32534757 11.89155081 -8 13 C-8.32504259 8.17805357 -8.32504259 8.17805357 -10.5625 4.0625 C-11.036875 3.711875 -11.51125 3.36125 -12 3 C-11.67 2.01 -11.34 1.02 -11 0 C-6.14193822 -1.9248924 -4.80924398 -2.40462199 0 0 Z " fill="#1A1919" transform="translate(202,244)"/>
<path d="M0 0 C0.99 0.33 1.98 0.66 3 1 C3.48238394 5.05202513 3.18904731 6.70783598 0.9375 10.1875 C-2.97331268 14.3729484 -7.57947076 16.12528862 -13.25 16.375 C-17 16 -17 16 -19 14.5 C-19.33 14.005 -19.66 13.51 -20 13 C-19.34 11.68 -18.68 10.36 -18 9 C-16.824375 9.0825 -15.64875 9.165 -14.4375 9.25 C-9.53873534 9.24131425 -6.95478731 7.86915942 -3 5 C-1.06305417 2.41796279 -1.06305417 2.41796279 0 0 Z " fill="#1B1A1A" transform="translate(103,277)"/>
<path d="M0 0 C4.29 0 8.58 0 13 0 C14.65787368 4.1446842 15.31567476 6.53350085 15.625 10.8125 C15.69976562 11.78832031 15.77453125 12.76414062 15.8515625 13.76953125 C15.90054687 14.50558594 15.94953125 15.24164063 16 16 C15.34 16 14.68 16 14 16 C14.33 19.96 14.66 23.92 15 28 C14.34 28 13.68 28 13 28 C9.50239865 20.54858843 9.30534178 13.08629264 9 5 C7.68 4.67 6.36 4.34 5 4 C5 3.67 5 3.34 5 3 C3.35 2.67 1.7 2.34 0 2 C0 1.34 0 0.68 0 0 Z " fill="#393033" transform="translate(300,111)"/>
<path d="M0 0 C0.50508972 3.89519106 1.00317733 7.79124657 1.5 11.6875 C1.64308594 12.79029297 1.78617187 13.89308594 1.93359375 15.02929688 C2.06894531 16.09599609 2.20429688 17.16269531 2.34375 18.26171875 C2.46943359 19.24100342 2.59511719 20.22028809 2.72460938 21.22924805 C2.98432795 23.84232089 3.05025329 26.37635968 3 29 C2.34 29 1.68 29 1 29 C0.67 28.01 0.34 27.02 0 26 C-0.99 26.66 -1.98 27.32 -3 28 C-5.61654664 10.26822413 -5.61654664 10.26822413 -5 4 C-1.97560976 0 -1.97560976 0 0 0 Z " fill="#332F2F" transform="translate(346,412)"/>
<path d="M0 0 C1.93017578 0.65698242 1.93017578 0.65698242 4 2 C4.76123047 4.44262695 4.76123047 4.44262695 5.1171875 7.48828125 C5.24867188 8.58720703 5.38015625 9.68613281 5.515625 10.81835938 C5.63421875 11.97142578 5.7528125 13.12449219 5.875 14.3125 C6.01679688 15.45396484 6.15859375 16.59542969 6.3046875 17.77148438 C7.40986646 27.62024067 7.40986646 27.62024067 5 32 C3.515 32.495 3.515 32.495 2 33 C0.07217266 31.07217266 0.58704166 27.57336361 0.4375 24.9375 C0.3950415 24.23173828 0.35258301 23.52597656 0.30883789 22.79882812 C-0.10861591 15.19898506 -0.09105654 7.60828017 0 0 Z " fill="#484546" transform="translate(333,320)"/>
<path d="M0 0 C0.99 0 1.98 0 3 0 C3.0825 0.61875 3.165 1.2375 3.25 1.875 C3.81258459 4.18437567 3.81258459 4.18437567 6.0625 5.25 C6.701875 5.4975 7.34125 5.745 8 6 C7.34 6 6.68 6 6 6 C6 6.66 6 7.32 6 8 C5.34 8 4.68 8 4 8 C4 10.31 4 12.62 4 15 C4.99 15 5.98 15 7 15 C6.67 16.32 6.34 17.64 6 19 C3.625 19.1875 3.625 19.1875 1 19 C-1.4294516 15.3558226 -1.16179575 13.28758728 -1 9 C-1.99 8.67 -2.98 8.34 -4 8 C-2.87548273 5.0280615 -1.77706209 2.66559313 0 0 Z M8 4 C9.98 4 11.96 4 14 4 C13.67 4.66 13.34 5.32 13 6 C11.68 6 10.36 6 9 6 C8.67 5.34 8.34 4.68 8 4 Z " fill="#2A2527" transform="translate(238,295)"/>
<path d="M0 0 C0.66 0 1.32 0 2 0 C2.33 7.59 2.66 15.18 3 23 C-2 22 -2 22 -3 21 C-3.08631874 19.65732587 -3.10706473 18.31025678 -3.09765625 16.96484375 C-3.09443359 16.15595703 -3.09121094 15.34707031 -3.08789062 14.51367188 C-3.07951172 13.66353516 -3.07113281 12.81339844 -3.0625 11.9375 C-3.05798828 11.08349609 -3.05347656 10.22949219 -3.04882812 9.34960938 C-3.03700373 7.23304337 -3.01906769 5.11651315 -3 3 C-2.34 3 -1.68 3 -1 3 C-0.67 2.01 -0.34 1.02 0 0 Z " fill="#413F40" transform="translate(38,203)"/>
<path d="M0 0 C0.99 0.33 1.98 0.66 3 1 C2.34 1 1.68 1 1 1 C1.01571045 1.55985596 1.0314209 2.11971191 1.04760742 2.6965332 C1.10999848 5.2350859 1.14900218 7.77347729 1.1875 10.3125 C1.21263672 11.19357422 1.23777344 12.07464844 1.26367188 12.98242188 C1.27333984 13.82998047 1.28300781 14.67753906 1.29296875 15.55078125 C1.3086792 16.33106689 1.32438965 17.11135254 1.34057617 17.9152832 C0.91847304 20.49903853 -0.01489942 21.36292167 -2 23 C-2.99 22.67 -3.98 22.34 -5 22 C-5.13548815 19.26916098 -5.23429855 16.54508193 -5.3125 13.8125 C-5.35439453 13.04357422 -5.39628906 12.27464844 -5.43945312 11.48242188 C-5.53491887 7.03371827 -5.43312555 5.52445124 -2.48046875 1.94921875 C-1.66191406 1.30597656 -0.84335937 0.66273438 0 0 Z " fill="#3B3A39" transform="translate(35,131)"/>
<path d="M0 0 C0.33 7.26 0.66 14.52 1 22 C0.01 21.34 -0.98 20.68 -2 20 C-2.66 20.66 -3.32 21.32 -4 22 C-4.80450651 17.57521419 -5.14080668 13.2487646 -5.25 8.75 C-5.27578125 7.73421875 -5.3015625 6.7184375 -5.328125 5.671875 C-5 3 -5 3 -3.609375 1.140625 C-2 0 -2 0 0 0 Z " fill="#3F3A3A" transform="translate(340,350)"/>
<path d="M0 0 C0.66 0 1.32 0 2 0 C2 0.66 2 1.32 2 2 C3.65 1.67 5.3 1.34 7 1 C7 2.32 7 3.64 7 5 C-3.81452748 5.86039692 -14.18845168 6.0229267 -25 5 C-25 4.34 -25 3.68 -25 3 C-16.64736824 2.04541351 -8.40215965 1.88960666 0 2 C0 1.34 0 0.68 0 0 Z " fill="#1E1E1B" transform="translate(190,492)"/>
<path d="M0 0 C-0.66 0.66 -1.32 1.32 -2 2 C-0.35 2 1.3 2 3 2 C3.33 2.99 3.66 3.98 4 5 C-1.36489595 5.90483637 -6.50317457 6.12303662 -11.9375 6.0625 C-12.71673828 6.05798828 -13.49597656 6.05347656 -14.29882812 6.04882812 C-16.19925268 6.03716908 -18.09963706 6.01923877 -20 6 C-19.67 5.34 -19.34 4.68 -19 4 C-16.4375 3.375 -16.4375 3.375 -14 3 C-14.66 2.34 -15.32 1.68 -16 1 C-10.62915894 0.31798844 -5.41499441 -0.11521265 0 0 Z " fill="#252525" transform="translate(234,115)"/>
<path d="M0 0 C0.33 0.66 0.66 1.32 1 2 C2.64363134 2.72159424 4.31050386 3.39351421 6 4 C6 4.33 6 4.66 6 5 C-2.02332397 5.90041311 -9.92970447 6.11547323 -18 6 C-18 5.34 -18 4.68 -18 4 C-15.69 4 -13.38 4 -11 4 C-11 3.34 -11 2.68 -11 2 C-13.31 2 -15.62 2 -18 2 C-18 1.67 -18 1.34 -18 1 C-15.37504621 0.83257698 -12.75004205 0.6660283 -10.125 0.5 C-9.00544922 0.42845703 -9.00544922 0.42845703 -7.86328125 0.35546875 C-2.2265625 0 -2.2265625 0 0 0 Z " fill="#222221" transform="translate(197,117)"/>
<path d="M0 0 C-0.99 0.33 -1.98 0.66 -3 1 C-3.33 1.99 -3.66 2.98 -4 4 C-4 3.34 -4 2.68 -4 2 C-6.10544013 2.28232721 -8.20933589 2.5761898 -10.3125 2.875 C-11.48425781 3.03742188 -12.65601563 3.19984375 -13.86328125 3.3671875 C-17.14530895 3.82300621 -17.14530895 3.82300621 -20 6 C-22.48046875 5.7578125 -22.48046875 5.7578125 -25.1875 5.125 C-26.08855469 4.92132813 -26.98960938 4.71765625 -27.91796875 4.5078125 C-28.60503906 4.34023437 -29.29210938 4.17265625 -30 4 C-29.67 3.01 -29.34 2.02 -29 1 C-19.29056184 0.16220564 -9.73944972 -0.12276617 0 0 Z " fill="#3D3D3A" transform="translate(87,124)"/>
<path d="M0 0 C2.47212294 2.93394811 3.53887671 5.23792842 4.25 9 C4.50523438 10.2684375 4.50523438 10.2684375 4.765625 11.5625 C5.00137699 14.01432071 4.75375194 15.67413687 4 18 C3.67 17.67 3.34 17.34 3 17 C2.67 17.99 2.34 18.98 2 20 C1.34 20 0.68 20 0 20 C-1.23759823 16.28720531 -1.35608897 12.68693654 -1.5625 8.8125 C-1.60568359 8.06291016 -1.64886719 7.31332031 -1.69335938 6.54101562 C-1.79922685 4.69421625 -1.9000976 2.84713166 -2 1 C-1.34 0.67 -0.68 0.34 0 0 Z " fill="#373232" transform="translate(43,321)"/>
<path d="M0 0 C2.475 0.495 2.475 0.495 5 1 C5.33 5.62 5.66 10.24 6 15 C5.34 14.67 4.68 14.34 4 14 C3.34 16.64 2.68 19.28 2 22 C1.67 22 1.34 22 1 22 C-0.17402193 14.66236293 -0.09377123 7.41834582 0 0 Z " fill="#322F30" transform="translate(36,225)"/>
<path d="M0 0 C0.33 0.66 0.66 1.32 1 2 C3.97 2 6.94 2 10 2 C9.67 2.99 9.34 3.98 9 5 C3.23900697 6.16989449 -2.5190595 6.33204041 -8.375 6.5625 C-9.39722656 6.60568359 -10.41945313 6.64886719 -11.47265625 6.69335938 C-13.98165288 6.79887792 -16.49073943 6.90099213 -19 7 C-18.67 6.01 -18.34 5.02 -18 4 C-17.03578125 3.93941406 -16.0715625 3.87882812 -15.078125 3.81640625 C-13.81484375 3.73261719 -12.5515625 3.64882812 -11.25 3.5625 C-9.99703125 3.48128906 -8.7440625 3.40007812 -7.453125 3.31640625 C-4.81682447 3.07484478 -2.51962706 2.75716066 0 2 C0 1.34 0 0.68 0 0 Z " fill="#2F2E2E" transform="translate(87,123)"/>
<path d="M0 0 C3.02093215 3.02093215 2.46676834 6.56372072 2.625 10.625 C2.66367187 11.42679687 2.70234375 12.22859375 2.7421875 13.0546875 C2.83653931 15.03607556 2.91936215 17.01800645 3 19 C-0.05890398 17.98036534 -1.1269304 17.53610308 -3 15 C-3.29296875 12.30078125 -3.29296875 12.30078125 -3.1875 9.3125 C-3.16042969 8.31863281 -3.13335937 7.32476562 -3.10546875 6.30078125 C-3.07066406 5.54152344 -3.03585938 4.78226562 -3 4 C-2.34 4 -1.68 4 -1 4 C-0.67 2.68 -0.34 1.36 0 0 Z " fill="#403F3E" transform="translate(46,337)"/>
<path d="M0 0 C-0.33 0.66 -0.66 1.32 -1 2 C0.918125 1.938125 0.918125 1.938125 2.875 1.875 C5.0546875 1.8046875 5.0546875 1.8046875 7 2 C7.66 2.66 8.32 3.32 9 4 C1.97360585 4.74805717 -4.93391809 5.13794954 -12 5 C-12 4.34 -12 3.68 -12 3 C-11.34 2.67 -10.68 2.34 -10 2 C-11.65 2 -13.3 2 -15 2 C-15.33 1.34 -15.66 0.68 -16 0 C-13.89651926 -0.19504458 -11.79217415 -0.38078496 -9.6875 -0.5625 C-8.51574219 -0.66691406 -7.34398437 -0.77132812 -6.13671875 -0.87890625 C-3 -1 -3 -1 0 0 Z " fill="#30302F" transform="translate(58,126)"/>
<path d="M0 0 C0.928125 0.2784375 0.928125 0.2784375 1.875 0.5625 C4.04160178 1.23686176 4.04160178 1.23686176 6 0 C6.24887295 2.10192697 6.4734719 4.20673964 6.6875 6.3125 C6.81511719 7.48425781 6.94273438 8.65601563 7.07421875 9.86328125 C7 13 7 13 5.64453125 14.91796875 C4 16 4 16 2 16 C0.5192152 13.0384304 0.64685963 10.16493705 0.4375 6.875 C0.35371094 5.59367188 0.26992188 4.31234375 0.18359375 2.9921875 C0.12300781 2.00476563 0.06242187 1.01734375 0 0 Z " fill="#323132" transform="translate(33,190)"/>
<path d="M0 0 C0 0.33 0 0.66 0 1 C-1.08539063 1.13277344 -2.17078125 1.26554687 -3.2890625 1.40234375 C-4.73438322 1.58066254 -6.17969526 1.75905169 -7.625 1.9375 C-8.69427734 2.06801758 -8.69427734 2.06801758 -9.78515625 2.20117188 C-13.87591961 2.70782605 -17.93842635 3.2889043 -22 4 C-22 3.34 -22 2.68 -22 2 C-23.32 2 -24.64 2 -26 2 C-26.33 2.66 -26.66 3.32 -27 4 C-35.57142857 4.14285714 -35.57142857 4.14285714 -39 3 C-39.33 4.32 -39.66 5.64 -40 7 C-40.99 5.68 -41.98 4.36 -43 3 C-41.27102782 1.27102782 -38.88667677 1.64499686 -36.5234375 1.46484375 C-34.81377808 1.33408447 -34.81377808 1.33408447 -33.06958008 1.20068359 C-31.85036865 1.11383301 -30.63115723 1.02698242 -29.375 0.9375 C-28.14998779 0.84807129 -26.92497559 0.75864258 -25.6628418 0.66650391 C-17.08711954 0.07077064 -8.59344709 -0.25909891 0 0 Z " fill="#302F2D" transform="translate(265,488)"/>
<path d="M0 0 C1.875 1.375 1.875 1.375 2.8125 3.8125 C2.875 6.375 2.875 6.375 1.8125 8.25 C-1.03221851 9.90177204 -3.02692587 9.13230701 -6.125 8.375 C-6.75 6.0625 -6.75 6.0625 -7.125 3.375 C-4.97529127 0.1504369 -3.89700478 -1.14617788 0 0 Z " fill="#191919" transform="translate(239.125,242.625)"/>
<path d="M0 0 C0 0.66 0 1.32 0 2 C-2.31 2 -4.62 2 -7 2 C-7 2.66 -7 3.32 -7 4 C-13.08108873 5.80789124 -18.16862339 3.83657235 -24 2 C-17.25699374 -2.49533751 -7.71135492 -1.15670324 0 0 Z " fill="#313130" transform="translate(186,119)"/>
<path d="M0 0 C2 2 2 2 2.22705078 5.53173828 C2.22673363 7.04463331 2.21540633 8.55755088 2.1953125 10.0703125 C2.1924826 10.86654022 2.18965271 11.66276794 2.18673706 12.48312378 C2.1755264 15.03056763 2.15042062 17.57766211 2.125 20.125 C2.11497133 21.85025535 2.10584528 23.57551619 2.09765625 25.30078125 C2.07558422 29.53398914 2.04104867 33.7669353 2 38 C-1.04653107 33.43020339 -1.08788513 29.99798404 -0.87890625 24.70703125 C-0.85529526 24.00100266 -0.83168427 23.29497406 -0.80735779 22.56755066 C-0.73087055 20.31565493 -0.64678253 18.06411613 -0.5625 15.8125 C-0.50926432 14.28452259 -0.45652401 12.75652784 -0.40429688 11.22851562 C-0.27527576 7.48545165 -0.13943788 3.74268981 0 0 Z " fill="#050504" transform="translate(315,260)"/>
<path d="M0 0 C0.495 0.391875 0.99 0.78375 1.5 1.1875 C1.5 3.4975 1.5 5.8075 1.5 8.1875 C0.06163249 8.07291307 -1.37570966 7.94540884 -2.8125 7.8125 C-4.01326172 7.70808594 -4.01326172 7.70808594 -5.23828125 7.6015625 C-7.5 7.1875 -7.5 7.1875 -10.5 5.1875 C-10.5 4.1975 -10.5 3.2075 -10.5 2.1875 C-3.28774617 -1.06851751 -3.28774617 -1.06851751 0 0 Z " fill="#151514" transform="translate(240.5,254.8125)"/>
<path d="M0 0 C0.33 1.32 0.66 2.64 1 4 C1.66 4 2.32 4 3 4 C5.1103435 8.27884606 5.24128739 12.13864142 5.125 16.8125 C5.11597656 17.50537109 5.10695313 18.19824219 5.09765625 18.91210938 C5.07426157 20.60822395 5.03839641 22.30415871 5 24 C4.01 24.33 3.02 24.66 2 25 C1.34 16.75 0.68 8.5 0 0 Z " fill="#373735" transform="translate(45,381)"/>
<path d="M0 0 C0 0.66 0 1.32 0 2 C-0.66 2.66 -1.32 3.32 -2 4 C-0.68 4.66 0.64 5.32 2 6 C2.125 8.375 2.125 8.375 2 11 C1.34 11.66 0.68 12.32 0 13 C-2.45098556 12.60467975 -4.63904279 11.78698574 -7 11 C-6.67 9.68 -6.34 8.36 -6 7 C-5.34 7 -4.68 7 -4 7 C-4 6.34 -4 5.68 -4 5 C-4.66 5 -5.32 5 -6 5 C-6.33 4.01 -6.66 3.02 -7 2 C-2.25 0 -2.25 0 0 0 Z " fill="#2F2A2C" transform="translate(277,298)"/>
<path d="M0 0 C3 1 3 1 5 3 C8.09926819 2.67801034 8.09926819 2.67801034 11 2 C12.0625 3.875 12.0625 3.875 13 6 C12.67 6.66 12.34 7.32 12 8 C10.39667209 8.08121924 8.79215974 8.13929134 7.1875 8.1875 C6.29417969 8.22230469 5.40085937 8.25710938 4.48046875 8.29296875 C2 8 2 8 0.15625 6.65625 C-1 5 -1 5 -0.6875 2.3125 C-0.460625 1.549375 -0.23375 0.78625 0 0 Z " fill="#282626" transform="translate(53,498)"/>
<path d="M0 0 C0.66 0.66 1.32 1.32 2 2 C-0.66666667 3.33333333 -3.33333333 4.66666667 -6 6 C-6 6.66 -6 7.32 -6 8 C-7.65 7.67 -9.3 7.34 -11 7 C-11.33 7.99 -11.66 8.98 -12 10 C-12.99 9.34 -13.98 8.68 -15 8 C-14.07038578 6.84775972 -13.1309875 5.70340824 -12.1875 4.5625 C-11.66542969 3.92441406 -11.14335937 3.28632813 -10.60546875 2.62890625 C-7.55245106 -0.46868104 -4.11829629 -0.26286998 0 0 Z " fill="#1C1C1C" transform="translate(167,258)"/>
<path d="M0 0 C0.66 1.32 1.32 2.64 2 4 C2.66 4 3.32 4 4 4 C4.33 2.68 4.66 1.36 5 0 C5 4.29 5 8.58 5 13 C1 14 1 14 -2 13 C-1.855625 12.154375 -1.71125 11.30875 -1.5625 10.4375 C-0.9941203 6.96406851 -0.48797607 3.48554338 0 0 Z " fill="#282828" transform="translate(349,470)"/>
<path d="M0 0 C0 0.66 0 1.32 0 2 C0.66 2.66 1.32 3.32 2 4 C-0.31 4.33 -2.62 4.66 -5 5 C-5 4.34 -5 3.68 -5 3 C-8.3 2.67 -11.6 2.34 -15 2 C-15 2.66 -15 3.32 -15 4 C-16.98 4 -18.96 4 -21 4 C-21 3.34 -21 2.68 -21 2 C-13.94546999 0.79556805 -7.16562789 -0.28100502 0 0 Z " fill="#333230" transform="translate(329,482)"/>
<path d="M0 0 C0 1.32 0 2.64 0 4 C-2.74517981 4.88404096 -5.15913146 5.65759777 -8 6 C-9.70116376 5.05988318 -11.36504293 4.05104383 -13 3 C-16.32021068 2.43551287 -19.63930713 2.1892429 -23 2 C-23 1.67 -23 1.34 -23 1 C-7.25512528 -0.14806378 -7.25512528 -0.14806378 0 0 Z " fill="#22221F" transform="translate(271,113)"/>
<path d="M0 0 C0.99 0.33 1.98 0.66 3 1 C3 4.63 3 8.26 3 12 C2.01 12.33 1.02 12.66 0 13 C0 11.35 0 9.7 0 8 C-1.98491642 8.26676204 -1.98491642 8.26676204 -4 9 C-4.33 9.99 -4.66 10.98 -5 12 C-5 10.35 -5 8.7 -5 7 C-4.34 7 -3.68 7 -3 7 C-2.690625 6.21625 -2.38125 5.4325 -2.0625 4.625 C-1 2 -1 2 0 0 Z " fill="#252021" transform="translate(280,293)"/>
<path d="M0 0 C3.36720387 1.39332574 4.9859524 2.9789286 7 6 C5 7 5 7 2.6875 6.5 C0.02900522 5.83292805 0.02900522 5.83292805 -2.5 6.5 C-5.31556665 7.06311333 -7.24286986 6.70897632 -10 6 C-10 5.34 -10 4.68 -10 4 C-7.96165924 3.49041481 -5.93331236 2.98627019 -3.875 2.5625 C-1.77917672 2.09524327 -1.77917672 2.09524327 0 0 Z " fill="#202021" transform="translate(195,279)"/>
<path d="M0 0 C2.31 0 4.62 0 7 0 C7.66 1.65 8.32 3.3 9 5 C3.06 5.495 3.06 5.495 -3 6 C-3.66 5.01 -4.32 4.02 -5 3 C-3.35 2.34 -1.7 1.68 0 1 C0 0.67 0 0.34 0 0 Z " fill="#24201F" transform="translate(111,497)"/>
<path d="M0 0 C1.79275866 3.11910856 2.34290718 5.67682428 2.625 9.25 C2.69976562 10.14203125 2.77453125 11.0340625 2.8515625 11.953125 C2.90054688 12.62859375 2.94953125 13.3040625 3 14 C-1.875 13.125 -1.875 13.125 -3 12 C-3.04092937 9.66702567 -3.04241723 7.33294775 -3 5 C-2.01 4.67 -1.02 4.34 0 4 C0 2.68 0 1.36 0 0 Z " fill="#3B393A" transform="translate(38,212)"/>
<path d="M0 0 C5.28 0 10.56 0 16 0 C16 0.66 16 1.32 16 2 C15.01 2 14.02 2 13 2 C13 2.99 13 3.98 13 5 C11.02 5 9.04 5 7 5 C7 4.67 7 4.34 7 4 C4.03 3.67 1.06 3.34 -2 3 C-1.34 2.67 -0.68 2.34 0 2 C0 1.34 0 0.68 0 0 Z " fill="#332F32" transform="translate(125,121)"/>
<path d="M0 0 C4.62 0 9.24 0 14 0 C14 0.33 14 0.66 14 1 C12.35 1.33 10.7 1.66 9 2 C9.99 2.99 10.98 3.98 12 5 C8.04 5 4.08 5 0 5 C0 3.33333333 0 1.66666667 0 0 Z " fill="#313031" transform="translate(64,500)"/>
<path d="M0 0 C0.33 3.96 0.66 7.92 1 12 C0.34 11.67 -0.32 11.34 -1 11 C-1 10.34 -1 9.68 -1 9 C-2.32 9 -3.64 9 -5 9 C-5 6.36 -5 3.72 -5 1 C-3 0 -3 0 0 0 Z " fill="#34312F" transform="translate(57,490)"/>
<path d="M0 0 C2.97 0.33 5.94 0.66 9 1 C9 1.33 9 1.66 9 2 C7.35 2.33 5.7 2.66 4 3 C6.64 3.66 9.28 4.32 12 5 C8.22364747 7.51756835 5.43634442 7.63772451 1 7 C-1 5.5 -1 5.5 -2 4 C-1.34 2.68 -0.68 1.36 0 0 Z " fill="#21211E" transform="translate(85,286)"/>
<path d="M0 0 C0.33 0.66 0.66 1.32 1 2 C3.30428213 2.25635503 5.62091113 2.40592533 7.9375 2.5 C14.77836691 2.77836691 14.77836691 2.77836691 17 5 C10.4 5.33 3.8 5.66 -3 6 C-3 4.68 -3 3.36 -3 2 C-2.01 2.33 -1.02 2.66 0 3 C0 2.01 0 1.02 0 0 Z " fill="#1C1C1C" transform="translate(141,120)"/>
<path d="M0 0 C1.07765625 0.01804687 2.1553125 0.03609375 3.265625 0.0546875 C4.49539062 0.08949219 4.49539062 0.08949219 5.75 0.125 C4.43 1.775 3.11 3.425 1.75 5.125 C-2.33378283 4.38249403 -6.26939223 3.29576699 -10.25 2.125 C-6.7733662 -0.01836161 -4.03770805 -0.08777626 0 0 Z " fill="#313031" transform="translate(240.25,114.875)"/>
<path d="M0 0 C0.66 0.33 1.32 0.66 2 1 C0.83981519 3.32036962 -0.22202159 5.09502313 -2 7 C-4.6875 7.25 -4.6875 7.25 -7 7 C-7 6.34 -7 5.68 -7 5 C-7.99 5 -8.98 5 -10 5 C-9.34 3.68 -8.68 2.36 -8 1 C-6.865625 1.020625 -5.73125 1.04125 -4.5625 1.0625 C-1.18424326 1.41577477 -1.18424326 1.41577477 0 0 Z " fill="#1B1B1B" transform="translate(169,267)"/>
<path d="M0 0 C1.32 0 2.64 0 4 0 C4.82351864 6.38226945 5.12086218 12.56744599 5 19 C4.67 19 4.34 19 4 19 C3.09586327 15.16275828 2.89423102 11.62497726 2.9375 7.6875 C2.94652344 6.61886719 2.95554687 5.55023438 2.96484375 4.44921875 C2.98224609 3.23685547 2.98224609 3.23685547 3 2 C2.34 2 1.68 2 1 2 C1 7.28 1 12.56 1 18 C0.67 18 0.34 18 0 18 C-0.19384179 15.18780295 -0.38036603 12.37545804 -0.5625 9.5625 C-0.61857422 8.76005859 -0.67464844 7.95761719 -0.73242188 7.13085938 C-0.8616295 5.08937889 -0.9351273 3.04453631 -1 1 C-0.67 0.67 -0.34 0.34 0 0 Z " fill="#262626" transform="translate(314,152)"/>
<path d="M0 0 C1.98 0.99 1.98 0.99 4 2 C4 3.65 4 5.3 4 7 C3.34 7 2.68 7 2 7 C2 10.3 2 13.6 2 17 C1.34 16.67 0.68 16.34 0 16 C0 10.72 0 5.44 0 0 Z " fill="#5E5C5A" transform="translate(333,320)"/>
<path d="M0 0 C4.29 0 8.58 0 13 0 C12.01 2.31 11.02 4.62 10 7 C9.67 6.34 9.34 5.68 9 5 C6.97536745 4.34786708 6.97536745 4.34786708 5 4 C5 3.67 5 3.34 5 3 C3.35 2.67 1.7 2.34 0 2 C0 1.34 0 0.68 0 0 Z " fill="#3C3B3C" transform="translate(300,111)"/>
<path d="M0 0 C4.95 0 9.9 0 15 0 C14.34 0.66 13.68 1.32 13 2 C13.66 2.66 14.32 3.32 15 4 C13.37536158 4.05395478 11.75021459 4.09277195 10.125 4.125 C8.76761719 4.15980469 8.76761719 4.15980469 7.3828125 4.1953125 C5 4 5 4 3 2 C2.01 2 1.02 2 0 2 C0 1.34 0 0.68 0 0 Z " fill="#2E2E29" transform="translate(192,492)"/>
<path d="M0 0 C1.32 0.66 2.64 1.32 4 2 C4 3.98 4 5.96 4 8 C3.34 8 2.68 8 2 8 C1.67 9.32 1.34 10.64 1 12 C-1.44576827 8.33134759 -1.23607254 6.32799657 -1 2 C-0.67 1.34 -0.34 0.68 0 0 Z " fill="#3C3C3C" transform="translate(42,305)"/>
<path d="M0 0 C0.66 0 1.32 0 2 0 C2.33 4.62 2.66 9.24 3 14 C2.34 14 1.68 14 1 14 C0.67 13.01 0.34 12.02 0 11 C-0.99 11.66 -1.98 12.32 -3 13 C-2.01 8.71 -1.02 4.42 0 0 Z " fill="#3B3939" transform="translate(346,427)"/>
<path d="M0 0 C-0.25 1.875 -0.25 1.875 -1 4 C-3.0625 5.25 -3.0625 5.25 -5 6 C-5.66 5.34 -6.32 4.68 -7 4 C-7.99 4.495 -7.99 4.495 -9 5 C-9.33 4.01 -9.66 3.02 -10 2 C-3.375 -1.125 -3.375 -1.125 0 0 Z " fill="#1D1D1C" transform="translate(150,281)"/>
<path d="M0 0 C0.99 0.66 1.98 1.32 3 2 C3.66 1.67 4.32 1.34 5 1 C7.1385485 3.1385485 7.42655063 4.13275314 8 7 C7.01 6.67 6.02 6.34 5 6 C4.34 6.66 3.68 7.32 3 8 C2.34 7.01 1.68 6.02 1 5 C0.34 6.32 -0.32 7.64 -1 9 C-1.99 8.01 -2.98 7.02 -4 6 C-3.01 5.34 -2.02 4.68 -1 4 C-0.27617533 1.94074861 -0.27617533 1.94074861 0 0 Z " fill="#0E0E0D" transform="translate(177,265)"/>
<path d="M0 0 C0.33 0.99 0.66 1.98 1 3 C2.98 3 4.96 3 7 3 C7.33 3.66 7.66 4.32 8 5 C3.69512128 5.92247401 0.27664906 6.16635883 -4 5 C-4.66 4.01 -5.32 3.02 -6 2 C-4.02 2 -2.04 2 0 2 C0 1.34 0 0.68 0 0 Z " fill="#221E21" transform="translate(78,499)"/>
<path d="M0 0 C0.99 0.66 1.98 1.32 3 2 C2.50168276 5.68754757 1.89932357 7.60490662 -1 10 C-1.99 9.67 -2.98 9.34 -4 9 C-3.46930939 5.17902761 -2.50298434 2.93828597 0 0 Z " fill="#1A1A1A" transform="translate(228,273)"/>
<path d="M0 0 C1.134375 0.020625 2.26875 0.04125 3.4375 0.0625 C2.7775 0.7225 2.1175 1.3825 1.4375 2.0625 C2.0975 2.3925 2.7575 2.7225 3.4375 3.0625 C3.4375 3.7225 3.4375 4.3825 3.4375 5.0625 C-0.1925 5.7225 -3.8225 6.3825 -7.5625 7.0625 C-7.2325 6.4025 -6.9025 5.7425 -6.5625 5.0625 C-5.5725 5.0625 -4.5825 5.0625 -3.5625 5.0625 C-3.8409375 4.1034375 -3.8409375 4.1034375 -4.125 3.125 C-4.269375 2.444375 -4.41375 1.76375 -4.5625 1.0625 C-3.5625 0.0625 -3.5625 0.0625 0 0 Z " fill="#252522" transform="translate(88.5625,249.9375)"/>
<path d="M0 0 C0.66 0.66 1.32 1.32 2 2 C-3.16044765 3.512545 -6.65998179 4.33500455 -12 3 C-12 2.34 -12 1.68 -12 1 C-7.99047425 -0.33650858 -4.17983803 -0.20225023 0 0 Z " fill="#2C2928" transform="translate(305,113)"/>
<path d="M0 0 C2.15377564 2.62198774 3.40072174 4.64404172 4 8 C3.01 8.66 2.02 9.32 1 10 C0.27034634 12.56282742 0.27034634 12.56282742 0 15 C-0.33 15 -0.66 15 -1 15 C-1.33 10.38 -1.66 5.76 -2 1 C-1.34 0.67 -0.68 0.34 0 0 Z " fill="#2B2A2A" transform="translate(43,321)"/>
<path d="M0 0 C0.99 0.33 1.98 0.66 3 1 C2.67 2.32 2.34 3.64 2 5 C-0.25 5.6875 -0.25 5.6875 -3 6 C-5.3125 4.6875 -5.3125 4.6875 -7 3 C-7 2.34 -7 1.68 -7 1 C-4.03 1.495 -4.03 1.495 -1 2 C-0.67 1.34 -0.34 0.68 0 0 Z " fill="#242424" transform="translate(294,272)"/>
<path d="M0 0 C0.33 0 0.66 0 1 0 C1.95261487 4.76307437 2.08333357 9.1666528 2 14 C1.01 14 0.02 14 -1 14 C-1.33 14.99 -1.66 15.98 -2 17 C-2.33 17 -2.66 17 -3 17 C-3 15.35 -3 13.7 -3 12 C-2.34 11.67 -1.68 11.34 -1 11 C-0.34 11.33 0.32 11.66 1 12 C0.34 11.34 -0.32 10.68 -1 10 C-1.20146402 6.306493 -1.17353189 3.52059568 0 0 Z " fill="#252223" transform="translate(349,445)"/>
<path d="M0 0 C1.32 0.66 2.64 1.32 4 2 C4 4.31 4 6.62 4 9 C3.01 9.33 2.02 9.66 1 10 C-0.625 7.25 -0.625 7.25 -2 4 C-1.1875 1.625 -1.1875 1.625 0 0 Z " fill="#322E2F" transform="translate(349,465)"/>
<path d="M0 0 C0.33 1.32 0.66 2.64 1 4 C1.66 4 2.32 4 3 4 C5.05547653 8.35277383 5.05547653 8.35277383 4.8125 11.1875 C4 13 4 13 1 15 C0.67 10.05 0.34 5.1 0 0 Z " fill="#272726" transform="translate(45,381)"/>
<path d="M0 0 C0.33 0.66 0.66 1.32 1 2 C3.52733235 2.65555119 3.52733235 2.65555119 6 3 C6 3.99 6 4.98 6 6 C3.29120665 7.35439668 0.99066732 7.06501451 -2 7 C-1.34 4.69 -0.68 2.38 0 0 Z " fill="#222021" transform="translate(280,273)"/>
<path d="M0 0 C4.62 0 9.24 0 14 0 C13.01 0.33 12.02 0.66 11 1 C10.67 1.99 10.34 2.98 10 4 C10 3.34 10 2.68 10 2 C6.37 2.66 2.74 3.32 -1 4 C-0.67 2.68 -0.34 1.36 0 0 Z " fill="#3D3B3A" transform="translate(73,124)"/>
<path d="M0 0 C1.54571278 2.31856917 2.79618552 4.50638429 4 7 C2.35 8.32 0.7 9.64 -1 11 C-1.33 7.7 -1.66 4.4 -2 1 C-1.34 0.67 -0.68 0.34 0 0 Z " fill="#312E2A" transform="translate(52,466)"/>
<path d="M0 0 C0.33 0 0.66 0 1 0 C1 2.97 1 5.94 1 9 C1.66 9.33 2.32 9.66 3 10 C2.01 11.98 1.02 13.96 0 16 C-0.33 16 -0.66 16 -1 16 C-1 14.35 -1 12.7 -1 11 C-1.66 11 -2.32 11 -3 11 C-2.690625 10.29875 -2.38125 9.5975 -2.0625 8.875 C-0.96697322 5.91063343 -0.43577008 3.12301892 0 0 Z " fill="#2E2E2D" transform="translate(50,408)"/>
<path d="M0 0 C0.99 0 1.98 0 3 0 C4.13643966 3.40931897 3.86747764 4.00335456 2.5625 7.1875 C2.27503906 7.90292969 1.98757812 8.61835938 1.69140625 9.35546875 C1.46324219 9.89816406 1.23507813 10.44085938 1 11 C-0.40416706 8.37888816 -1.6169847 5.96836854 -2 3 C-1.34 2.01 -0.68 1.02 0 0 Z " fill="#251F20" transform="translate(238,295)"/>
<path d="M0 0 C0.99 0.33 1.98 0.66 3 1 C3 5.62 3 10.24 3 15 C2.67 15 2.34 15 2 15 C1.86722656 14.32453125 1.73445313 13.6490625 1.59765625 12.953125 C1.42105469 12.06109375 1.24445313 11.1690625 1.0625 10.25 C0.88847656 9.36828125 0.71445312 8.4865625 0.53515625 7.578125 C0.19765979 5.95222966 -0.18475374 4.33442752 -0.62890625 2.734375 C-0.75136719 2.16203125 -0.87382812 1.5896875 -1 1 C-0.67 0.67 -0.34 0.34 0 0 Z " fill="#232321" transform="translate(278,238)"/>
<path d="M0 0 C0.66 0.99 1.32 1.98 2 3 C2.66 2.34 3.32 1.68 4 1 C5.97094808 5.92737019 6.1799928 9.78020872 6 15 C5.34 15 4.68 15 4 15 C3.97421875 14.39671875 3.9484375 13.7934375 3.921875 13.171875 C3.59668017 7.89464661 3.59668017 7.89464661 0.9375 3.4375 C0.298125 2.963125 -0.34125 2.48875 -1 2 C-0.67 1.34 -0.34 0.68 0 0 Z " fill="#151414" transform="translate(333,316)"/>
<path d="M0 0 C1.98 0 3.96 0 6 0 C6 1.32 6 2.64 6 4 C4.68 4.33 3.36 4.66 2 5 C1.67 6.32 1.34 7.64 1 9 C0.06576355 5.98968256 -0.04449911 5.13349732 1 2 C0.67 1.34 0.34 0.68 0 0 Z " fill="#1C1C1B" transform="translate(213,244)"/>
<path d="M0 0 C1.2065625 0.0309375 1.2065625 0.0309375 2.4375 0.0625 C2.4375 1.7125 2.4375 3.3625 2.4375 5.0625 C1.798125 5.18625 1.15875 5.31 0.5 5.4375 C-0.5209375 5.746875 -0.5209375 5.746875 -1.5625 6.0625 C-1.8925 6.7225 -2.2225 7.3825 -2.5625 8.0625 C-2.94313221 5.7364143 -3.27519945 3.40194736 -3.5625 1.0625 C-2.5625 0.0625 -2.5625 0.0625 0 0 Z " fill="#363534" transform="translate(35.5625,168.9375)"/>
<path d="M0 0 C0.99 1.32 1.98 2.64 3 4 C2.01 4.33 1.02 4.66 0 5 C0 7.31 0 9.62 0 12 C-0.66 12 -1.32 12 -2 12 C-2.24954005 10.56589632 -2.47392642 9.12739928 -2.6875 7.6875 C-2.81511719 6.88699219 -2.94273438 6.08648437 -3.07421875 5.26171875 C-3 3 -3 3 -1.51953125 1.20703125 C-1.01808594 0.80871094 -0.51664063 0.41039062 0 0 Z " fill="#2E2E2C" transform="translate(52,444)"/>
<path d="M0 0 C0.66 0.33 1.32 0.66 2 1 C2 3.97 2 6.94 2 10 C1.01 10.33 0.02 10.66 -1 11 C-1 10.34 -1 9.68 -1 9 C-1.99 8.67 -2.98 8.34 -4 8 C-3.01 8 -2.02 8 -1 8 C-1.020625 7.05125 -1.04125 6.1025 -1.0625 5.125 C-1 2 -1 2 0 0 Z " fill="#222120" transform="translate(200,245)"/>
<path d="M0 0 C0.66 0 1.32 0 2 0 C2.33 1.98 2.66 3.96 3 6 C0.525 7.485 0.525 7.485 -2 9 C-2 5.20442119 -1.49821059 3.37097383 0 0 Z " fill="#2B292A" transform="translate(312,112)"/>
<path d="M0 0 C-1 2 -1 2 -2 3 C-2 3.99 -2 4.98 -2 6 C-3.65 5.67 -5.3 5.34 -7 5 C-7 3.68 -7 2.36 -7 1 C-4.53721199 -0.231394 -2.7204945 -0.07159196 0 0 Z " fill="#171717" transform="translate(112,263)"/>
<path d="M0 0 C0.66 0.66 1.32 1.32 2 2 C1.98252073 4.75589777 1.86136729 7.38786676 1.625 10.125 C1.56828125 10.87910156 1.5115625 11.63320312 1.453125 12.41015625 C1.3115535 14.27418096 1.15700041 16.13721137 1 18 C0.67 18 0.34 18 0 18 C-0.19484938 15.56288386 -0.38115178 13.12562602 -0.5625 10.6875 C-0.64661133 9.65206055 -0.64661133 9.65206055 -0.73242188 8.59570312 C-0.96581505 5.37487726 -1.03224218 3.09672655 0 0 Z " fill="#000100" transform="translate(317,177)"/>
<path d="M0 0 C0.99 0.33 1.98 0.66 3 1 C2.67 1.66 2.34 2.32 2 3 C3.918125 2.938125 3.918125 2.938125 5.875 2.875 C8.0546875 2.8046875 8.0546875 2.8046875 10 3 C10.66 3.66 11.32 4.32 12 5 C6.06 5.495 6.06 5.495 0 6 C0 4 0 2 0 0 Z " fill="#292929" transform="translate(55,125)"/>
<path d="M0 0 C0.33 0.66 0.66 1.32 1 2 C1.66 2.33 2.32 2.66 3 3 C-0.6441774 5.4294516 -2.71241272 5.16179575 -7 5 C-7 3.66666667 -7 2.33333333 -7 1 C-3.535 0.505 -3.535 0.505 0 0 Z " fill="#262523" transform="translate(275,486)"/>
<path d="M0 0 C0.33 0.66 0.66 1.32 1 2 C1.99 1.67 2.98 1.34 4 1 C3.34 2.65 2.68 4.3 2 6 C0.35 6 -1.3 6 -3 6 C-3 5.34 -3 4.68 -3 4 C-3.66 3.34 -4.32 2.68 -5 2 C-3.35 1.34 -1.7 0.68 0 0 Z " fill="#262624" transform="translate(332,481)"/>
<path d="M0 0 C0.33 0 0.66 0 1 0 C1 2.97 1 5.94 1 9 C-0.65 9.33 -2.3 9.66 -4 10 C-4 9.01 -4 8.02 -4 7 C-3.34 7 -2.68 7 -2 7 C-1.855625 6.21625 -1.71125 5.4325 -1.5625 4.625 C-1 2 -1 2 0 0 Z " fill="#403D3A" transform="translate(56,481)"/>
<path d="M0 0 C-0.33 0.66 -0.66 1.32 -1 2 C-1.66 2 -2.32 2 -3 2 C-3 2.66 -3 3.32 -3 4 C-4.98 4.33 -6.96 4.66 -9 5 C-8.875 3.125 -8.875 3.125 -8 1 C-2.71910112 -1.35955056 -2.71910112 -1.35955056 0 0 Z " fill="#1B1A19" transform="translate(278,239)"/>
<path d="M0 0 C0.66 0.66 1.32 1.32 2 2 C1.625 5.125 1.625 5.125 1 8 C-1.475 7.01 -1.475 7.01 -4 6 C-4 5.01 -4 4.02 -4 3 C-2 1.3125 -2 1.3125 0 0 Z " fill="#414141" transform="translate(37,184)"/>
<path d="M0 0 C-0.33 2.64 -0.66 5.28 -1 8 C-1.66 7.67 -2.32 7.34 -3 7 C-3.66 7.99 -4.32 8.98 -5 10 C-5.25 6.6875 -5.25 6.6875 -5 3 C-2 0 -2 0 0 0 Z " fill="#373536" transform="translate(315,118)"/>
<path d="M0 0 C0.66 1.32 1.32 2.64 2 4 C2.66 4 3.32 4 4 4 C4.33 2.68 4.66 1.36 5 0 C5 2.64 5 5.28 5 8 C2.03 7.505 2.03 7.505 -1 7 C-0.67 4.69 -0.34 2.38 0 0 Z " fill="#1E1D1E" transform="translate(349,470)"/>
<path d="M0 0 C0.66 0.33 1.32 0.66 2 1 C2 1.66 2 2.32 2 3 C4.31 3 6.62 3 9 3 C9.33 3.99 9.66 4.98 10 6 C8.4375 6.75 8.4375 6.75 6 7 C3.49713591 5.86915563 1.32992278 4.47860484 -1 3 C-0.67 2.01 -0.34 1.02 0 0 Z " fill="#121210" transform="translate(76,285)"/>
<path d="M0 0 C0.66 1.32 1.32 2.64 2 4 C0.02 4.99 -1.96 5.98 -4 7 C-4.6875 5.1875 -4.6875 5.1875 -5 3 C-3.38441968 0.84589291 -2.74502455 0 0 0 Z " fill="#121211" transform="translate(77,279)"/>
<path d="M0 0 C0.33 0 0.66 0 1 0 C1.33 4.62 1.66 9.24 2 14 C1.01 14.33 0.02 14.66 -1 15 C-1.33 12.36 -1.66 9.72 -2 7 C-1.67 7 -1.34 7 -1 7 C-0.67 4.69 -0.34 2.38 0 0 Z " fill="#0E0E0E" transform="translate(313,235)"/>
<path d="M0 0 C0.99 0.495 0.99 0.495 2 1 C1.34 1.66 0.68 2.32 0 3 C0 2.01 0 1.02 0 0 Z M-2 0 C-0.57055055 2.35438733 0.08661261 3.48032433 -0.375 6.25 C-0.58125 6.8275 -0.7875 7.405 -1 8 C-1.66 8 -2.32 8 -3 8 C-3.33 5.69 -3.66 3.38 -4 1 C-3.34 0.67 -2.68 0.34 -2 0 Z " fill="#302D2A" transform="translate(55,480)"/>
<path d="M0 0 C2.475 0.99 2.475 0.99 5 2 C3.125 3.0625 3.125 3.0625 1 4 C0.34 3.67 -0.32 3.34 -1 3 C-0.67 2.01 -0.34 1.02 0 0 Z M5 1 C6.98 1 8.96 1 11 1 C10.67 1.66 10.34 2.32 10 3 C8.68 3 7.36 3 6 3 C5.67 2.34 5.34 1.68 5 1 Z " fill="#322E30" transform="translate(241,298)"/>
<path d="M0 0 C0.99 0.66 1.98 1.32 3 2 C3.1875 5.625 3.1875 5.625 3 9 C0.525 8.01 0.525 8.01 -2 7 C-1.34 6.67 -0.68 6.34 0 6 C-0.2784375 5.071875 -0.2784375 5.071875 -0.5625 4.125 C-1 2 -1 2 0 0 Z " fill="#20201F" transform="translate(239,254)"/>
<path d="M0 0 C0.33 0 0.66 0 1 0 C1 3.63 1 7.26 1 11 C0.01 10.67 -0.98 10.34 -2 10 C-2.25 3.375 -2.25 3.375 0 0 Z " fill="#1C1C1C" transform="translate(276,256)"/>
<path d="M0 0 C-4.94816714 2.80396138 -9.61682285 1.77350507 -15 1 C-10.05362966 -1.70003213 -4.95581858 -3.30387905 0 0 Z " fill="#4A4745" transform="translate(75,126)"/>
<path d="M0 0 C0.99 0 1.98 0 3 0 C3.05395478 1.62463842 3.09277195 3.24978541 3.125 4.875 C3.14820313 5.77992188 3.17140625 6.68484375 3.1953125 7.6171875 C3 10 3 10 1 12 C0.67 8.04 0.34 4.08 0 0 Z " fill="#2D2828" transform="translate(43,352)"/>
<path d="M0 0 C0.33 0 0.66 0 1 0 C1.33 2.97 1.66 5.94 2 9 C1.01 9.33 0.02 9.66 -1 10 C-1.02689216 8.52093108 -1.04634621 7.04172517 -1.0625 5.5625 C-1.07410156 4.73878906 -1.08570313 3.91507812 -1.09765625 3.06640625 C-1 1 -1 1 0 0 Z M2 4 C3 8 3 8 3 8 Z " fill="#332F30" transform="translate(336,337)"/>
<path d="M0 0 C0.99 0.33 1.98 0.66 3 1 C3 3.31 3 5.62 3 8 C2.01 7.67 1.02 7.34 0 7 C0 6.34 0 5.68 0 5 C-0.66 4.67 -1.32 4.34 -2 4 C-1.34 2.68 -0.68 1.36 0 0 Z " fill="#191617" transform="translate(280,293)"/>
<path d="M0 0 C0.66 0 1.32 0 2 0 C2.66 1.32 3.32 2.64 4 4 C3.01 4.495 3.01 4.495 2 5 C1.34 4.67 0.68 4.34 0 4 C-0.33 4.66 -0.66 5.32 -1 6 C-1.33 5.67 -1.66 5.34 -2 5 C-2.66 5.66 -3.32 6.32 -4 7 C-4 5.35 -4 3.7 -4 2 C-3.01 1.67 -2.02 1.34 -1 1 C-0.67 0.67 -0.34 0.34 0 0 Z " fill="#100D0E" transform="translate(286,267)"/>
<path d="M0 0 C1.69141656 0.08963062 3.37959602 0.24577676 5.0625 0.4375 C6.44115234 0.59025391 6.44115234 0.59025391 7.84765625 0.74609375 C8.55792969 0.82988281 9.26820312 0.91367187 10 1 C6.328125 3.953125 6.328125 3.953125 3.375 4.375 C2.199375 4.189375 2.199375 4.189375 1 4 C0.34 3.01 -0.32 2.02 -1 1 C-0.67 0.67 -0.34 0.34 0 0 Z " fill="#1B1717" transform="translate(107,499)"/>
<path d="M0 0 C0.66 0.33 1.32 0.66 2 1 C0.515 4.96 0.515 4.96 -1 9 C-1.66 9 -2.32 9 -3 9 C-3.36923077 3.46153846 -3.36923077 3.46153846 -1.5 1.125 C-1.005 0.75375 -0.51 0.3825 0 0 Z " fill="#363231" transform="translate(338,350)"/>
<path d="M0 0 C0.99 0 1.98 0 3 0 C2.75 2.375 2.75 2.375 2 5 C-0.0625 6.3125 -0.0625 6.3125 -2 7 C-2 3.89448334 -1.4606285 2.64738916 0 0 Z " fill="#404040" transform="translate(33,147)"/>
<path d="M0 0 C0.66 0 1.32 0 2 0 C2 1.65 2 3.3 2 5 C1.34 5 0.68 5 0 5 C-0.33 5.99 -0.66 6.98 -1 8 C-1.66 8 -2.32 8 -3 8 C-1.125 1.125 -1.125 1.125 0 0 Z " fill="#3F393A" transform="translate(342,398)"/>
<path d="M0 0 C3.3 0.33 6.6 0.66 10 1 C10 1.33 10 1.66 10 2 C6.37 2.66 2.74 3.32 -1 4 C-0.67 2.68 -0.34 1.36 0 0 Z " fill="#1D1D1B" transform="translate(226,491)"/>
<path d="M0 0 C0.99 0 1.98 0 3 0 C2.67 2.64 2.34 5.28 2 8 C1.34 8 0.68 8 0 8 C0 5.36 0 2.72 0 0 Z " fill="#434341" transform="translate(52,449)"/>
<path d="M0 0 C1.32 0 2.64 0 4 0 C4.33 1.98 4.66 3.96 5 6 C4.34 5.34 3.68 4.68 3 4 C2.01 4.66 1.02 5.32 0 6 C0 4.02 0 2.04 0 0 Z " fill="#393A38" transform="translate(49,441)"/>
<path d="M0 0 C3.3 0 6.6 0 10 0 C9.67 0.66 9.34 1.32 9 2 C6.71484375 2.4140625 6.71484375 2.4140625 3.9375 2.625 C3.01839844 2.69976562 2.09929687 2.77453125 1.15234375 2.8515625 C0.44207031 2.90054688 -0.26820312 2.94953125 -1 3 C-0.67 2.01 -0.34 1.02 0 0 Z " fill="#2B2A28" transform="translate(69,127)"/>
<path d="M0 0 C3.625 0.375 3.625 0.375 7 1 C7 1.66 7 2.32 7 3 C4.1875 3.625 4.1875 3.625 1 4 C0.01 3.34 -0.98 2.68 -2 2 C-1.34 1.34 -0.68 0.68 0 0 Z " fill="#2D2D2D" transform="translate(283,112)"/>
<path d="M0 0 C1.485 0.99 1.485 0.99 3 2 C2.67 3.32 2.34 4.64 2 6 C2.66 6.33 3.32 6.66 4 7 C2.68 7 1.36 7 0 7 C-0.38133299 5.0085944 -0.71325582 3.00720923 -1 1 C-0.67 0.67 -0.34 0.34 0 0 Z " fill="#212020" transform="translate(53,498)"/>
<path d="M0 0 C1.30048841 2.60097682 1.56471422 5.13955062 2 8 C0.68 8 -0.64 8 -2 8 C-2.33 7.01 -2.66 6.02 -3 5 C-1.5625 2.3125 -1.5625 2.3125 0 0 Z " fill="#2E2C2D" transform="translate(348,449)"/>
<path d="M0 0 C0 0.99 0 1.98 0 3 C-3 5 -3 5 -6 5 C-5.6875 3.0625 -5.6875 3.0625 -5 1 C-2 0 -2 0 0 0 Z " fill="#1F1F1D" transform="translate(250,254)"/>
<path d="M0 0 C1.134375 0.020625 2.26875 0.04125 3.4375 0.0625 C3.4375 0.7225 3.4375 1.3825 3.4375 2.0625 C0.77083333 2.72916667 -1.89583333 3.39583333 -4.5625 4.0625 C-4.5625 -0.28271095 -4.43767807 0.077854 0 0 Z " fill="#1B1A19" transform="translate(208.5625,243.9375)"/>
<path d="M0 0 C1.66666667 0 3.33333333 0 5 0 C4.67 1.65 4.34 3.3 4 5 C2.68 5 1.36 5 0 5 C0 3.35 0 1.7 0 0 Z " fill="#4B4B4B" transform="translate(313,148)"/>
<path d="M0 0 C0.66 0.33 1.32 0.66 2 1 C2 1.99 2 2.98 2 4 C1.38125 4.28875 0.7625 4.5775 0.125 4.875 C-2.13325765 5.93720042 -2.13325765 5.93720042 -4 8 C-3.6875 5.125 -3.6875 5.125 -3 2 C-2.01 1.34 -1.02 0.68 0 0 Z " fill="#282526" transform="translate(314,123)"/>
<path d="M0 0 C0.66 0.33 1.32 0.66 2 1 C1.67 1.99 1.34 2.98 1 4 C-0.65 4.33 -2.3 4.66 -4 5 C-4.33 4.01 -4.66 3.02 -5 2 C-2.625 0.9375 -2.625 0.9375 0 0 Z " fill="#292728" transform="translate(342,480)"/>
<path d="M0 0 C0.99 0.33 1.98 0.66 3 1 C3.33 2.65 3.66 4.3 4 6 C3.01 6 2.02 6 1 6 C0.4465236 3.92446352 0 2.15634036 0 0 Z " fill="#212121" transform="translate(238,243)"/>
<path d="M0 0 C0 0.99 0 1.98 0 3 C-0.99 3 -1.98 3 -3 3 C-3.33 4.32 -3.66 5.64 -4 7 C-4.33 7 -4.66 7 -5 7 C-5 5.02 -5 3.04 -5 1 C-3 0 -3 0 0 0 Z " fill="#333333" transform="translate(36,144)"/>
<path d="M0 0 C-0.33 0.99 -0.66 1.98 -1 3 C-2.98 3 -4.96 3 -7 3 C-6.67 2.01 -6.34 1.02 -6 0 C-3.42525708 -0.99667468 -2.51072708 -1.25536354 0 0 Z " fill="#373634" transform="translate(103,125)"/>
<path d="M0 0 C0.33 0.66 0.66 1.32 1 2 C1.99 2.33 2.98 2.66 4 3 C0.535 4.485 0.535 4.485 -3 6 C-3 4.68 -3 3.36 -3 2 C-2.01 2.33 -1.02 2.66 0 3 C0 2.01 0 1.02 0 0 Z " fill="#232222" transform="translate(141,120)"/>
<path d="M0 0 C0.66 0.33 1.32 0.66 2 1 C2 1.66 2 2.32 2 3 C2.99 3 3.98 3 5 3 C4.67 4.32 4.34 5.64 4 7 C3.67 6.34 3.34 5.68 3 5 C2.01 4.67 1.02 4.34 0 4 C-0.33 3.01 -0.66 2.02 -1 1 C-0.67 0.67 -0.34 0.34 0 0 Z " fill="#322C2F" transform="translate(240,307)"/>
<path d="M0 0 C2.31 0 4.62 0 7 0 C6.67 1.32 6.34 2.64 6 4 C4.02 3.34 2.04 2.68 0 2 C0 1.34 0 0.68 0 0 Z " fill="#262425" transform="translate(100,499)"/>
<path d="M0 0 C0.33 1.32 0.66 2.64 1 4 C2.32 4.33 3.64 4.66 5 5 C5 5.66 5 6.32 5 7 C3.02 6.34 1.04 5.68 -1 5 C-0.67 3.35 -0.34 1.7 0 0 Z " fill="#1B1A1A" transform="translate(269,305)"/>
<path d="M0 0 C1.65 0 3.3 0 5 0 C5.33 0.99 5.66 1.98 6 3 C2.25 4.125 2.25 4.125 0 3 C0 2.01 0 1.02 0 0 Z " fill="#11100F" transform="translate(141,266)"/>
<path d="M0 0 C2.97 0.33 5.94 0.66 9 1 C6 3 6 3 2.8125 2.625 C1.884375 2.41875 0.95625 2.2125 0 2 C0 1.34 0 0.68 0 0 Z " fill="#33302F" transform="translate(293,114)"/>
<path d="" fill="#FFFFFF" transform="translate(0,0)"/>
<path d="" fill="#FFFFFF" transform="translate(0,0)"/>
<path d="" fill="#FFFFFF" transform="translate(0,0)"/>
<path d="" fill="#FFFFFF" transform="translate(0,0)"/>
<path d="" fill="#FFFFFF" transform="translate(0,0)"/>
<path d="" fill="#FFFFFF" transform="translate(0,0)"/>
<path d="" fill="#FFFFFF" transform="translate(0,0)"/>
<path d="" fill="#FFFFFF" transform="translate(0,0)"/>
<path d="" fill="#FFFFFF" transform="translate(0,0)"/>
<path d="" fill="#FFFFFF" transform="translate(0,0)"/>
<path d="" fill="#FFFFFF" transform="translate(0,0)"/>
<path d="" fill="#FFFFFF" transform="translate(0,0)"/>
<path d="" fill="#FFFFFF" transform="translate(0,0)"/>
<path d="" fill="#FFFFFF" transform="translate(0,0)"/>
<path d="" fill="#FFFFFF" transform="translate(0,0)"/>
<path d="" fill="#FFFFFF" transform="translate(0,0)"/>
<path d="" fill="#FFFFFF" transform="translate(0,0)"/>
<path d="" fill="#FFFFFF" transform="translate(0,0)"/>
<path d="" fill="#FFFFFF" transform="translate(0,0)"/>
<path d="" fill="#FFFFFF" transform="translate(0,0)"/>
<path d="" fill="#FFFFFF" transform="translate(0,0)"/>
<path d="" fill="#FFFFFF" transform="translate(0,0)"/>
<path d="" fill="#FFFFFF" transform="translate(0,0)"/>
<path d="" fill="#FFFFFF" transform="translate(0,0)"/>
<path d="" fill="#FFFFFF" transform="translate(0,0)"/>
<path d="" fill="#FFFFFF" transform="translate(0,0)"/>
<path d="" fill="#FFFFFF" transform="translate(0,0)"/>
<path d="" fill="#FFFFFF" transform="translate(0,0)"/>
<path d="" fill="#FFFFFF" transform="translate(0,0)"/>
<path d="" fill="#FFFFFF" transform="translate(0,0)"/>
<path d="" fill="#FFFFFF" transform="translate(0,0)"/>
<path d="" fill="#FFFFFF" transform="translate(0,0)"/>
<path d="" fill="#FFFFFF" transform="translate(0,0)"/>
<path d="" fill="#FFFFFF" transform="translate(0,0)"/>
<path d="" fill="#FFFFFF" transform="translate(0,0)"/>
<path d="" fill="#FFFFFF" transform="translate(0,0)"/>
<path d="" fill="#FFFFFF" transform="translate(0,0)"/>
<path d="" fill="#FFFFFF" transform="translate(0,0)"/>
<path d="" fill="#FFFFFF" transform="translate(0,0)"/>
<path d="" fill="#FFFFFF" transform="translate(0,0)"/>
<path d="" fill="#FFFFFF" transform="translate(0,0)"/>
<path d="" fill="#FFFFFF" transform="translate(0,0)"/>
<path d="" fill="#FFFFFF" transform="translate(0,0)"/>
<path d="" fill="#000000" transform="translate(0,0)"/>
<path d="" fill="#FFFFFF" transform="translate(0,0)"/>
<path d="" fill="#FFFFFF" transform="translate(0,0)"/>
<path d="" fill="#FFFFFF" transform="translate(0,0)"/>
<path d="" fill="#FFFFFF" transform="translate(0,0)"/>
<path d="" fill="#FFFFFF" transform="translate(0,0)"/>
<path d="" fill="#FFFFFF" transform="translate(0,0)"/>
<path d="" fill="#FFFFFF" transform="translate(0,0)"/>
<path d="" fill="#FFFFFF" transform="translate(0,0)"/>
<path d="" fill="#FFFFFF" transform="translate(0,0)"/>
<path d="" fill="#FFFFFF" transform="translate(0,0)"/>
<path d="" fill="#FFFFFF" transform="translate(0,0)"/>
<path d="" fill="#FFFFFF" transform="translate(0,0)"/>
<path d="" fill="#FFFFFF" transform="translate(0,0)"/>
<path d="" fill="#FFFFFF" transform="translate(0,0)"/>
<path d="" fill="#FFFFFF" transform="translate(0,0)"/>
<path d="" fill="#FFFFFF" transform="translate(0,0)"/>
<path d="" fill="#FFFFFF" transform="translate(0,0)"/>
<path d="" fill="#FFFFFF" transform="translate(0,0)"/>
<path d="" fill="#FFFFFF" transform="translate(0,0)"/>
<path d="" fill="#FFFFFF" transform="translate(0,0)"/>
<path d="" fill="#FFFFFF" transform="translate(0,0)"/>
<path d="" fill="#FFFFFF" transform="translate(0,0)"/>
<path d="" fill="#FFFFFF" transform="translate(0,0)"/>
<path d="" fill="#FFFFFF" transform="translate(0,0)"/>
<path d="" fill="#FFFFFF" transform="translate(0,0)"/>
<path d="" fill="#FFFFFF" transform="translate(0,0)"/>
<path d="" fill="#FFFFFF" transform="translate(0,0)"/>
<path d="" fill="#FFFFFF" transform="translate(0,0)"/>
<path d="" fill="#FFFFFF" transform="translate(0,0)"/>
<path d="" fill="#FFFFFF" transform="translate(0,0)"/>
<path d="" fill="#FFFFFF" transform="translate(0,0)"/>
<path d="" fill="#FFFFFF" transform="translate(0,0)"/>
<path d="" fill="#FFFFFF" transform="translate(0,0)"/>
<path d="" fill="#FFFFFF" transform="translate(0,0)"/>
<path d="" fill="#FFFFFF" transform="translate(0,0)"/>
<path d="" fill="#FFFFFF" transform="translate(0,0)"/>
<path d="" fill="#FFFFFF" transform="translate(0,0)"/>
</svg>
